<?xml version="1.0" encoding="utf-8"?>
<!-- Generator: Adobe Illustrator 21.1.0, SVG Export Plug-In . SVG Version: 6.00 Build 0)  -->
<svg version="1.1" id="Capa_1" xmlns="http://www.w3.org/2000/svg" xmlns:xlink="http://www.w3.org/1999/xlink" x="0px" y="0px"
	 viewBox="0 0 512 512" style="enable-background:new 0 0 512 512;" xml:space="preserve">
<style type="text/css">
	.st0{fill:#256278;}
</style>
<g>
	<path class="st0" d="M478.3,421.6c-43.4-43.1-65.4-94.1-65.4-151.7v-83.7c0.4-63.8-42.5-106.2-79.4-123
		c-10.6-4.8-21.5-8.6-32.5-11.3v-5.3C301,20.9,280.1,0,254.4,0s-46.5,20.9-46.5,46.5v6.2c-10,2.7-19.8,6.2-29.3,10.6
		c-40.8,18.8-82.1,64.1-82.4,122.9V270c0,59.5-21,110.5-62.4,151.7c-2.5,2.5-3.4,6.1-2.3,9.4c1,3.3,3.9,5.8,7.3,6.4l88.4,15.3
		c16.5,2.8,31.6,5.2,46,7.1c16.3,31.8,48.2,52.3,83,52.3c34.9,0,66.8-20.4,83-52.3c14.4-1.9,29.4-4.2,45.8-7.1l88.3-15.3
		c3.4-0.6,6.2-3.1,7.3-6.4C481.6,427.7,480.7,424.1,478.3,421.6z M226.5,46.5c0-15.4,12.5-27.9,27.9-27.9s27.9,12.5,27.9,27.9v1.7
		c-18.6-2.7-37.4-2.6-55.9,0.4v-2.1C226.4,46.5,226.5,46.5,226.5,46.5z M256.1,493.4c-23.6,0-45.6-11.7-59.7-30.9
		c20.8,2.1,40.2,3.2,59.6,3.2c19.5,0,39-1.1,59.9-3.2C301.7,481.7,279.7,493.4,256.1,493.4z M381.8,434.3
		c-17.9,3.1-34.2,5.6-49.7,7.6c0,0,0,0-0.1,0c-6.8,0.9-13.4,1.6-19.9,2.3c-0.1,0-0.1,0-0.2,0c-5.9,0.6-11.7,1.1-17.5,1.5
		c-1.1,0.1-2.2,0.1-3.3,0.2c-5,0.3-9.9,0.6-14.8,0.8c-1,0-2,0.1-3,0.1c-11.6,0.4-23,0.4-34.6,0c-1,0-2.1-0.1-3.1-0.1
		c-4.8-0.2-9.7-0.4-14.6-0.8c-1.2-0.1-2.3-0.1-3.5-0.2c-5.6-0.4-11.2-0.9-17-1.4c-0.2,0-0.4,0-0.6-0.1c-6.4-0.6-13-1.4-19.8-2.3H180
		c-15.5-2-32-4.5-49.9-7.6L58.9,422c37.1-42.4,55.9-93.4,55.9-152v-83.7c0.3-50.6,36.2-89.7,71.6-106c10.5-4.9,21.4-8.5,32.6-11
		c0.1,0,0.2,0,0.3,0c22.9-5.2,47.4-5.4,70.6-0.6c0.1,0,0.2,0,0.4,0c12.1,2.5,24.1,6.4,35.6,11.6c34.3,15.7,68.9,54.6,68.5,106V270
		c0,56.2,20.2,108.4,58.8,152L381.8,434.3z"/>
	<path class="st0" d="M314.1,105.5C278,89,233.9,89,198,105.5c-20.4,9.4-55.1,37-55.4,80.6c0,5.1,4.1,9.3,9.3,9.4c0,0,0,0,0.1,0
		c5.1,0,9.3-4.1,9.3-9.3c0.2-34.2,28.1-56.2,44.5-63.8c31-14.3,69.3-14.3,100.5,0c4.7,2.1,10.2,0.1,12.3-4.6
		C320.9,113.2,318.8,107.7,314.1,105.5z"/>
</g>
</svg>
