<?xml version="1.0" encoding="utf-8"?>
<!-- Generator: Adobe Illustrator 21.1.0, SVG Export Plug-In . SVG Version: 6.00 Build 0)  -->
<svg version="1.1" id="Layer_1" xmlns="http://www.w3.org/2000/svg" xmlns:xlink="http://www.w3.org/1999/xlink" x="0px" y="0px"
	 viewBox="0 0 921 512" style="enable-background:new 0 0 921 512;" xml:space="preserve">
<style type="text/css">
	.st0{fill:#216176;}
	.st1{fill:#46BA98;}
	.st2{fill:#FFFFFF;stroke:#FFFFFF;stroke-width:13;stroke-miterlimit:10;}
</style>
<g>
	<path class="st0" d="M55.4,240.3h110.1c2.8,0,5.2-2.3,5.2-5.2v-90.6c0-2.9-2.3-5.2-5.2-5.2H55.4c-2.9,0-5.2,2.3-5.2,5.2v90.6
		C50.2,237.9,52.5,240.3,55.4,240.3z M60.5,149.7h99.8v80.3H60.5V149.7z"/>
	<path class="st0" d="M55.4,392.9h110.1c2.8,0,5.2-2.3,5.2-5.2v-90.6c0-2.9-2.3-5.2-5.2-5.2H55.4c-2.9,0-5.2,2.3-5.2,5.2v90.6
		C50.2,390.6,52.5,392.9,55.4,392.9z M60.5,302.3h99.8v80.3H60.5V302.3z"/>
	<path class="st1" d="M127.9,101.5c-2.9,0-5.2,2.3-5.2,5.2c0,2.8,2.3,5.2,5.2,5.2H216c2.8,0,5.2-2.3,5.2-5.2c0-2.9-2.3-5.2-5.2-5.2
		H127.9z"/>
	<path class="st0" d="M211.7,380h71.6c2.8,0,5.2-2.3,5.2-5.2c0-2.9-2.3-5.2-5.2-5.2h-71.6c-2.9,0-5.2,2.3-5.2,5.2
		C206.5,377.7,208.8,380,211.7,380z"/>
	<path class="st2" d="M141.4,353.1h160.1c2.8,0,5.2-2.3,5.2-5.2V205.4c0-2.9-2.3-5.2-5.2-5.2H141.4c-2.9,0-5.2,2.3-5.2,5.2v142.6
		C136.3,350.8,138.6,353.1,141.4,353.1z M296.4,342.8V210.5V342.8H146.6H296.4z"/>
	<path class="st0" d="M198.7,144.5h71.6c2.8,0,5.2-2.3,5.2-5.2s-2.3-5.2-5.2-5.2h-71.6c-2.9,0-5.2,2.3-5.2,5.2
		S195.9,144.5,198.7,144.5z"/>
	<path class="st0" d="M340,425.7H14.3V117.4l38.9,0c2.8,0,5.2-2.4,5.2-5.2V73.3h107.5c2.8,0,5.2-2.3,5.2-5.2c0-2.9-2.3-5.2-5.2-5.2
		H53.2c-1.4,0-2.7,0.6-3.6,1.5l-44,44c-1,1-1.5,2.3-1.5,3.7v318.6c0,2.9,2.3,5.2,5.2,5.2H340V425.7z M339.9,432V68.1
		c0-2.9-2.3-5.2-5.2-5.2H200.8c-2.8,0-5.2,2.3-5.2,5.2c0,2.8,2.3,5.2,5.2,5.2h128.7V432H339.9z M48,107H21.6L48,80.6V107z"/>
	<path class="st1" d="M141.4,353.1h160.1c2.8,0,5.2-2.3,5.2-5.2V205.4c0-2.9-2.3-5.2-5.2-5.2H141.4c-2.9,0-5.2,2.3-5.2,5.2v142.6
		C136.3,350.8,138.6,353.1,141.4,353.1z M146.6,210.5h149.8v132.3H146.6V210.5z"/>
</g>
<g>
	<g>
		<path class="st0" d="M260,309.6l-17.8-6.7c-1.6-0.6-2.6-2-2.6-3.7v-8.9c0.7-0.7,1.5-1.2,2.1-1.9c5.8-5.6,9-13.2,9-21.3v-6.7
			l0.9-1.9c1.8-3.6,2.8-7.6,2.8-11.6v-20.9c0-1.9-1.6-3.5-3.5-3.5h-38.9c-13.4,0-24.4,10.8-24.4,24.5c0,4.1,0.9,8,2.8,11.6l0.9,1.9
			v5.6c0,9.6,4.4,18.4,11.2,24v9.4c0,1.7-1,3.2-2.6,3.7l-17.8,6.7c-5.6,2.1-9.5,7.7-9.5,13.8V334c0,1.9,1.6,3.5,3.5,3.5
			c1.9,0,3.5-1.6,3.5-3.5v-10.3c0-3.2,1.9-6.1,5-7.2l17.8-6.7c0.9-0.5,1.9-0.8,2.7-1.5l12.4,9.4V328c0,1.9,1.6,2.5,3.5,2.5
			c1.9,0,3.5-0.6,3.5-2.5v-10.3l12.4-9.4c0.8,0.7,1.7,1,2.7,1.5l17.8,6.7c3,1.1,5,4.1,5,7.2V334c0,1.9,1.6,3.5,3.5,3.5
			s3.5-1.6,3.5-3.5v-10.3C269.6,317.2,265.8,311.7,260,309.6z M221.2,311.2l-12-8.9c0.3-0.9,0.6-1.9,0.6-3.2v-5
			c3.3,1.5,6.9,2.3,10.6,2.4c0.3,0,0.7,0,0.9,0c4.1,0,7.9-0.8,11.4-2.3v4.7c0,1,0.1,2,0.6,3.2L221.2,311.2z M236.9,283.2
			c-4.4,4.3-10.4,6.7-16.5,6.4c-12.1-0.5-22-11-22-23.7v-6.4c0-0.6-0.1-1-0.5-1.6l-1.4-2.8c-1.4-2.6-1.9-5.6-1.9-8.5
			c0-9.5,7.8-17.4,17.4-17.4h35.4v17.4c0,2.9-0.7,5.8-1.9,8.5l-1.4,2.8c-0.2,0.6-0.5,1-0.5,1.6v7.5
			C243.9,273.1,241.4,278.8,236.9,283.2z"/>
	</g>
</g>
</svg>
