<?xml version="1.0" encoding="utf-8"?>
<!-- Generator: Adobe Illustrator 21.1.0, SVG Export Plug-In . SVG Version: 6.00 Build 0)  -->
<svg version="1.1" id="Layer_1" xmlns="http://www.w3.org/2000/svg" xmlns:xlink="http://www.w3.org/1999/xlink" x="0px" y="0px"
	 viewBox="0 0 512 512" style="enable-background:new 0 0 512 512;" xml:space="preserve">
<style type="text/css">
	.st0{fill:#256278;}
	.st1{fill:#47BA99;}
</style>
<path class="st0" d="M32.2,52.1c-4.4,0-8-3.6-8-8c0-4.4,3.5-8,8-8h0.1c4.4,0,8,3.6,8,8C40.2,48.6,36.6,52.1,32.2,52.1z"/>
<path class="st0" d="M56.2,52.1c-4.4,0-8-3.6-8-8c0-4.4,3.5-8,8-8h0.1c4.4,0,8,3.6,8,8C64.2,48.6,60.6,52.1,56.2,52.1z"/>
<path class="st0" d="M80.2,52.1c-4.4,0-8-3.6-8-8c0-4.4,3.5-8,8-8h0.1c4.4,0,8,3.6,8,8C88.2,48.6,84.6,52.1,80.2,52.1z"/>
<path class="st0" d="M504,495H8.1c-4.4,0-8-3.6-8-8V63.1c0-4.4,3.6-8,8-8H504c4.4,0,8,3.6,8,8V487C512,491.4,508.4,495,504,495z
	 M16.1,479H496V71.1H16.1V479z"/>
<path class="st0" d="M8,49.1c-4.4,0-8-3.6-8-8c0-13.2,10.8-24,24-24c4.4,0,8,3.6,8,8c0,4.4-3.6,8-8,8c-4.4,0-8,3.6-8,8
	C16,45.6,12.4,49.1,8,49.1z"/>
<path class="st0" d="M8,65.1c-4.4,0-8-3.6-8-8v-16c0-4.4,3.6-8,8-8s8,3.6,8,8v16C16,61.5,12.4,65.1,8,65.1z"/>
<path class="st0" d="M503.9,49.1c-4.4,0-8-3.6-8-8c0-4.4-3.6-8-8-8c-4.4,0-8-3.6-8-8c0-4.4,3.6-8,8-8c13.2,0,24,10.8,24,24
	C511.9,45.6,508.3,49.1,503.9,49.1z"/>
<path class="st0" d="M503.9,65.1c-4.4,0-8-3.6-8-8v-16c0-4.4,3.6-8,8-8c4.4,0,8,3.6,8,8v16C511.9,61.5,508.3,65.1,503.9,65.1z"/>
<path class="st0" d="M487.9,33.1H24c-4.4,0-8-3.6-8-8c0-4.4,3.6-8,8-8h463.9c4.4,0,8,3.6,8,8C495.9,29.6,492.3,33.1,487.9,33.1z"/>
<path class="st1" d="M80.2,327.2c-4.4,0-8-3.6-8-8c0-17.6,14.3-32,32-32c4.4,0,8,3.6,8,8c0,4.4-3.6,8-8,8c-8.8,0-16,7.2-16,16
	C88.2,323.6,84.6,327.2,80.2,327.2z"/>
<path class="st1" d="M120.2,303.2h-16c-4.4,0-8-3.6-8-8c0-4.4,3.6-8,8-8h16c4.4,0,8,3.6,8,8C128.2,299.6,124.6,303.2,120.2,303.2z"
	/>
<path class="st1" d="M80.2,343.2c-4.4,0-8-3.6-8-8v-16c0-4.4,3.6-8,8-8c4.4,0,8,3.6,8,8v16C88.2,339.6,84.6,343.2,80.2,343.2z"/>
<path class="st1" d="M208.1,327.2c-4.4,0-8-3.6-8-8c0-8.8-7.2-16-16-16c-4.4,0-8-3.6-8-8c0-4.4,3.6-8,8-8c17.6,0,32,14.3,32,32
	C216.1,323.6,212.6,327.2,208.1,327.2z"/>
<path class="st1" d="M184.1,303.2h-16c-4.4,0-8-3.6-8-8c0-4.4,3.6-8,8-8h16c4.4,0,8,3.6,8,8C192.1,299.6,188.6,303.2,184.1,303.2z"
	/>
<path class="st1" d="M208.1,343.2c-4.4,0-8-3.6-8-8v-16c0-4.4,3.6-8,8-8c4.4,0,8,3.6,8,8v16C216.1,339.6,212.6,343.2,208.1,343.2z"
	/>
<path class="st1" d="M120.2,303.2c-4.4,0-8-3.6-8-8v-21.5c0-4.4,3.6-8,8-8c4.4,0,8,3.6,8,8v21.5
	C128.2,299.6,124.6,303.2,120.2,303.2z"/>
<path class="st1" d="M168.2,303.2c-4.4,0-8-3.6-8-8v-21.4c0-4.4,3.6-8,8-8c4.4,0,8,3.6,8,8v21.4
	C176.1,299.6,172.6,303.2,168.2,303.2z"/>
<path class="st1" d="M128.2,311.2c-2.9,0-5.8-1.6-7.2-4.4c-2-4-0.4-8.8,3.6-10.7l16-8c3.9-2,8.8-0.4,10.7,3.6
	c2,3.9,0.4,8.8-3.6,10.7l-16,8C130.6,310.9,129.4,311.2,128.2,311.2z"/>
<path class="st1" d="M160.2,311.2c-2,0-4.1-0.8-5.7-2.3c-3.1-3.1-3.1-8.2,0-11.3l8-8c3.1-3.1,8.2-3.1,11.3,0c3.1,3.1,3.1,8.2,0,11.3
	l-8,8C164.2,310.4,162.2,311.2,160.2,311.2z"/>
<path class="st1" d="M128.2,311.2c-2,0-4.1-0.8-5.7-2.3l-8-8c-3.1-3.1-3.1-8.2,0-11.3s8.2-3.1,11.3,0l8,8c3.1,3.1,3.1,8.2,0,11.3
	C132.3,310.4,130.2,311.2,128.2,311.2z"/>
<path class="st1" d="M160.1,311.2c-1.2,0-2.4-0.3-3.6-0.8l-16-8c-4-2-5.6-6.8-3.6-10.7c2-4,6.8-5.5,10.7-3.6l16,8
	c3.9,2,5.5,6.8,3.6,10.7C165.9,309.5,163.1,311.2,160.1,311.2z"/>
<path class="st1" d="M147.3,208c-23,0-45.2-8.9-46.1-9.3c-4.1-1.7-6-6.3-4.4-10.4c1.7-4.1,6.3-6.1,10.4-4.4
	c0.2,0.1,20.3,8.1,40.1,8.1c19.1,0,32.8-7.7,32.9-7.7c3.8-2.2,8.7-0.9,10.9,2.9c2.2,3.8,0.9,8.7-2.9,10.9
	C187.5,198.5,170.9,208,147.3,208z"/>
<path class="st1" d="M144.2,287.2c-35.3,0-64-28.7-64-64c0-4.4,3.6-8,8-8c4.4,0,8,3.6,8,8c0,26.5,21.5,48,48,48s48-21.5,48-48
	c0-4.4,3.6-8,8-8c4.4,0,8,3.6,8,8C208.1,258.5,179.4,287.2,144.2,287.2z"/>
<path class="st1" d="M88.2,231.2c-4.4,0-8-3.6-8-8v-40c0-4.4,3.6-8,8-8c4.4,0,8,3.6,8,8v40C96.2,227.6,92.6,231.2,88.2,231.2z"/>
<path class="st1" d="M200.1,231.2c-4.4,0-8-3.6-8-8l0-40c0-4.4,3.6-8,8-8c4.4,0,8,3.6,8,8l0,40C208.1,227.6,204.6,231.2,200.1,231.2
	z"/>
<path class="st1" d="M200.2,191.2c-4.4,0-8-3.6-8-8c0-8.8-7.2-16-16-16c-4.4,0-8-3.6-8-8c0-4.4,3.6-8,8-8c17.7,0,32,14.4,32,32
	C208.2,187.7,204.6,191.2,200.2,191.2z"/>
<path class="st1" d="M176.1,167.2c-4.4,0-8-3.6-8-8v-24c0-4.4,3.6-8,8-8c4.4,0,8,3.6,8,8v24C184.1,163.7,180.6,167.2,176.1,167.2z"
	/>
<path class="st1" d="M88.2,191.2c-4.4,0-8-3.6-8-8c0-30.9,25.1-56,56-56c4.4,0,8,3.6,8,8c0,4.4-3.6,8-8,8c-22,0-40,17.9-40,40
	C96.2,187.7,92.6,191.2,88.2,191.2z"/>
<path class="st1" d="M200.1,214.5c-2,0-4-0.7-5.5-2.2l-16-15.2c-3.2-3-3.3-8.1-0.3-11.3c3.1-3.2,8.1-3.3,11.3-0.3l16,15.2
	c3.2,3,3.3,8.1,0.3,11.3C204.4,213.7,202.3,214.5,200.1,214.5z"/>
<path class="st1" d="M88.2,214.5c-2.1,0-4.2-0.8-5.8-2.5c-3-3.2-2.9-8.3,0.3-11.3l16-15.1c3.2-3,8.3-2.9,11.3,0.3
	c3,3.2,2.9,8.3-0.3,11.3l-16,15.1C92.1,213.8,90.1,214.5,88.2,214.5z"/>
<path class="st1" d="M176.1,143.2h-40c-4.4,0-8-3.6-8-8c0-4.4,3.6-8,8-8h40c4.4,0,8,3.6,8,8C184.1,139.7,180.6,143.2,176.1,143.2z"
	/>
<path class="st1" d="M288,191.2c-2,0-4.1-0.8-5.7-2.3l-8-8c-3.1-3.1-3.1-8.2,0-11.3c3.1-3.1,8.2-3.1,11.3,0l8,8
	c3.1,3.1,3.1,8.2,0,11.3C292.1,190.4,290,191.2,288,191.2z"/>
<path class="st1" d="M288,191.2c-2,0-4.1-0.8-5.7-2.3c-3.1-3.1-3.1-8.2,0-11.3l32-32c3.1-3.1,8.2-3.1,11.3,0c3.1,3.1,3.1,8.2,0,11.3
	l-32,32C292.1,190.4,290,191.2,288,191.2z"/>
<path class="st1" d="M296,159.2h-32c-4.4,0-8-3.6-8-8c0-4.4,3.6-8,8-8h32c4.4,0,8,3.6,8,8C304,155.7,300.4,159.2,296,159.2z"/>
<path class="st1" d="M264,207.2c-4.4,0-8-3.6-8-8v-48c0-4.4,3.6-8,8-8c4.4,0,8,3.6,8,8v48C272,203.6,268.4,207.2,264,207.2z"/>
<path class="st1" d="M312,207.2h-48c-4.4,0-8-3.6-8-8c0-4.4,3.6-8,8-8h48c4.4,0,8,3.6,8,8C320,203.6,316.4,207.2,312,207.2z"/>
<path class="st1" d="M312,207.2c-4.4,0-8-3.6-8-8v-16c0-4.4,3.6-8,8-8c4.4,0,8,3.6,8,8v16C320,203.6,316.4,207.2,312,207.2z"/>
<path class="st1" d="M424.1,247.2H264c-4.4,0-8-3.6-8-8c0-4.4,3.6-8,8-8h160.1c4.4,0,8,3.6,8,8C432.1,243.6,428.5,247.2,424.1,247.2
	z"/>
<path class="st1" d="M424.1,271.2H264c-4.4,0-8-3.6-8-8c0-4.4,3.6-8,8-8h160.1c4.4,0,8,3.6,8,8C432.1,267.6,428.5,271.2,424.1,271.2
	z"/>
<path class="st1" d="M352,295.2h-88c-4.4,0-8-3.6-8-8c0-4.4,3.6-8,8-8h88c4.4,0,8,3.6,8,8C360,291.6,356.5,295.2,352,295.2z"/>
<path class="st1" d="M99.9,415.2c-15.4,0-28-12.6-28-28c0-15.4,12.6-28,28-28c15.4,0,28,12.6,28,28
	C127.9,402.6,115.4,415.2,99.9,415.2z M99.9,375.2c-6.6,0-12,5.4-12,12c0,6.6,5.4,12,12,12s12-5.4,12-12
	C111.9,380.6,106.6,375.2,99.9,375.2z"/>
<path class="st1" d="M149.9,439.1H46c-4.4,0-8-3.6-8-8c0-4.4,3.6-8,8-8h103.9c4.4,0,8,3.6,8,8C157.9,435.6,154.3,439.1,149.9,439.1z
	"/>
<path class="st1" d="M464,446.1H360.1c-4.4,0-8-3.6-8-8c0-4.4,3.6-8,8-8H464c4.4,0,8,3.6,8,8C472,442.6,468.4,446.1,464,446.1z"/>
<path class="st1" d="M308,446.1H204c-4.4,0-8-3.6-8-8c0-4.4,3.6-8,8-8H308c4.4,0,8,3.6,8,8C316,442.6,312.4,446.1,308,446.1z"/>
<path class="st1" d="M371.9,446.1H268c-4.4,0-8-3.6-8-8c0-4.4,3.6-8,8-8h103.9c4.4,0,8,3.6,8,8C379.9,442.6,376.4,446.1,371.9,446.1
	z"/>
<path class="st1" d="M464,402.2H360.1c-4.4,0-8-3.6-8-8c0-4.4,3.6-8,8-8H464c4.4,0,8,3.6,8,8C472,398.6,468.4,402.2,464,402.2z"/>
<path class="st1" d="M308,402.2H204c-4.4,0-8-3.6-8-8c0-4.4,3.6-8,8-8H308c4.4,0,8,3.6,8,8C316,398.6,312.4,402.2,308,402.2z"/>
<path class="st1" d="M371.9,402.2H268c-4.4,0-8-3.6-8-8c0-4.4,3.6-8,8-8h103.9c4.4,0,8,3.6,8,8C379.9,398.6,376.4,402.2,371.9,402.2
	z"/>
<path class="st1" d="M102,463.1H46c-4.4,0-8-3.6-8-8c0-4.4,3.6-8,8-8h56c4.4,0,8,3.6,8,8C110,459.6,106.4,463.1,102,463.1z"/>
<path class="st1" d="M160.2,342.8c-0.5,0-1,0-1.6-0.2c-4.3-0.9-7.1-5.1-6.3-9.4l8-39.9c0.9-4.3,5.1-7.2,9.4-6.3
	c4.3,0.9,7.1,5.1,6.3,9.4l-8,39.9C167.2,340.2,163.9,342.8,160.2,342.8z"/>
<path class="st1" d="M128.1,343.2c-3.7,0-7.1-2.6-7.8-6.4l-8-40.3c-0.9-4.3,2-8.5,6.3-9.4c4.3-0.9,8.5,2,9.4,6.3l8,40.3
	c0.9,4.3-2,8.5-6.3,9.4C129.2,343.1,128.7,343.2,128.1,343.2z"/>
<path class="st0" d="M471.1,346.2H39.2c-4.4,0-8-3.6-8-8V98.2c0-4.4,3.6-8,8-8h431.9c4.4,0,8,3.6,8,8v239.9
	C479.1,342.6,475.5,346.2,471.1,346.2z M47.2,330.2h415.9V106.2H47.2V330.2z"/>
</svg>
