<?xml version="1.0" encoding="utf-8"?>
<!-- Generator: Adobe Illustrator 21.1.0, SVG Export Plug-In . SVG Version: 6.00 Build 0)  -->
<svg version="1.1" id="Layer_1" xmlns="http://www.w3.org/2000/svg" xmlns:xlink="http://www.w3.org/1999/xlink" x="0px" y="0px"
	 viewBox="0 0 50 50" style="enable-background:new 0 0 50 50;" xml:space="preserve">
<style type="text/css">
	.st0{fill:none;stroke:#216176;stroke-width:1.96;stroke-miterlimit:10;}
</style>
<title>Memorilas</title>
<g id="_14">
	<path class="st0" d="M29.6,40.6c3.5,0.5,5.9,1.7,5.9,3c0,1.8-4.7,3.3-10.5,3.3s-10.4-1.5-10.4-3.3c0-1.3,2.3-2.4,5.7-3"/>
	<path class="st0" d="M29.6,22.4v18.9c0,1.2-1,2.2-2.2,2.2h-5c-1.2,0-2.2-1-2.2-2.2V19.1c0-0.8,0.6-1.5,1.3-1.7l0,0
		c0.1,0,0.3,0,0.4,0h4.4"/>
	<path class="st0" d="M28.2,11.5c0-4.2-5.3-8.4-5.3-8.4c1.7,4.3-1,5.3-1,8.4c0,1.7,1.4,3.2,3.2,3.2C26.8,14.7,28.2,13.2,28.2,11.5
		L28.2,11.5z"/>
	<line class="st0" x1="25" y1="17.3" x2="25" y2="12.2"/>
	<path class="st0" d="M28.2,17.3c1.1-0.1,2,0.6,2.2,1.7v2.5c-0.1,0.6-0.6,1.1-1.2,1l0,0c-0.6,0-1.1-0.4-1.2-1V20
		c-0.1-0.5-0.5-0.8-1-0.8l0,0c-0.5-0.1-0.9,0.3-1,0.8v0.2c-0.1,0.6-0.6,1-1.2,0.9l0,0c-0.6,0.1-1.1-0.3-1.2-0.9l0,0
		c-0.1-0.6-0.6-1.1-1.3-1.1c-0.4,0-0.8-0.2-1.1-0.5l0,0c-0.3-0.3-0.2-0.8,0.1-1.1c0.1-0.1,0.3-0.2,0.5-0.2L28.2,17.3L28.2,17.3z"/>
</g>
</svg>
