<?xml version="1.0" encoding="utf-8"?>
<!-- Generator: Adobe Illustrator 21.1.0, SVG Export Plug-In . SVG Version: 6.00 Build 0)  -->
<svg version="1.1" id="Layer_1" xmlns="http://www.w3.org/2000/svg" xmlns:xlink="http://www.w3.org/1999/xlink" x="0px" y="0px"
	 viewBox="0 0 50 50" style="enable-background:new 0 0 50 50;" xml:space="preserve">
<style type="text/css">
	.st0{fill:none;stroke:#216176;stroke-width:1.9;stroke-linejoin:round;}
</style>
<title>Environement</title>
<g id="_15">
	<polygon class="st0" points="31.1,1 31.1,1 22.7,12.5 39.6,12.5 33.9,4.8 	"/>
	<polyline class="st0" points="36.9,15.6 43.9,25.2 37.5,25.2 26.5,25.2 	"/>
	<line class="st0" x1="27.7" y1="12.5" x2="24.6" y2="16.4"/>
	<path class="st0" d="M14.4,39.7c-6.8,0-12.3-5.5-12.2-12.3s5.5-12.3,12.3-12.3s12.2,5.5,12.2,12.3c-0.1,5.3-3.6,10-8.6,11.7h29.7
		l-7.6-10.3"/>
	<polyline class="st0" points="33.2,39.2 33.2,48.9 29,48.9 29,42 	"/>
	<line class="st0" x1="14.4" y1="24.6" x2="14.4" y2="49"/>
	<line class="st0" x1="14.4" y1="36" x2="17.6" y2="32.8"/>
	<line class="st0" x1="11.2" y1="29.6" x2="14.4" y2="32.8"/>
</g>
</svg>
