<?xml version="1.0" encoding="utf-8"?>
<!-- Generator: Adobe Illustrator 21.1.0, SVG Export Plug-In . SVG Version: 6.00 Build 0)  -->
<svg version="1.1" id="Layer_1" xmlns="http://www.w3.org/2000/svg" xmlns:xlink="http://www.w3.org/1999/xlink" x="0px" y="0px"
	 viewBox="0 0 50 50" style="enable-background:new 0 0 50 50;" xml:space="preserve">
<style type="text/css">
	.st0{fill:none;stroke:#216176;stroke-width:2.03;stroke-miterlimit:10;}
</style>
<title>Children</title>
<path class="st0" d="M17.5,7.3C16.8,3,20.9,3,22.2,4.2c0.5,0.5,0.9,1.1,1,1.8C14.4,6.8,7,13.1,4.9,21.7c-2.4,0.2-4.1,2.2-3.9,4.6
	c0.2,2,1.7,3.7,3.7,3.9c2,11.3,12.8,18.7,24.1,16.7c8.5-1.5,15.2-8.2,16.7-16.7c2.3-0.4,3.9-2.5,3.6-4.9c-0.3-1.9-1.9-3.4-3.8-3.6
	C42.9,12.4,34.6,5.9,25,5.9h-0.4c0.4-2.1,2.4-3.4,4.4-3c1.8,0.3,3,1.9,3.1,3.7c0,0.4,0.3,0.7,0.7,0.7c0,0,0,0,0,0"/>
<path class="st0" d="M20.1,25.2c0-2.6-2.1-4.8-4.8-4.8s-4.8,2.1-4.8,4.8"/>
<path class="st0" d="M39.5,25.2c0-2.6-2.1-4.8-4.8-4.8c-2.6,0-4.8,2.1-4.8,4.8"/>
<path class="st0" d="M16.3,33.3c1.5,4.5,6.4,6.9,10.9,5.5c2.7-0.9,4.8-3.1,5.6-5.9"/>
</svg>
