<?xml version="1.0" encoding="utf-8"?>
<!-- Generator: Adobe Illustrator 21.1.0, SVG Export Plug-In . SVG Version: 6.00 Build 0)  -->
<svg version="1.1" id="Layer_1" xmlns="http://www.w3.org/2000/svg" xmlns:xlink="http://www.w3.org/1999/xlink" x="0px" y="0px"
	 viewBox="0 0 50 50" style="enable-background:new 0 0 50 50;" xml:space="preserve">
<style type="text/css">
	.st0{fill:none;stroke:#216176;stroke-width:1.52;stroke-miterlimit:10;}
</style>
<title>Rural Development</title>
<path class="st0" d="M18.7,20.7c0,3.5,2.8,6.3,6.3,6.3s6.3-2.8,6.3-6.3s-2.8-6.3-6.3-6.3C21.5,14.4,18.7,17.2,18.7,20.7
	C18.7,20.7,18.7,20.7,18.7,20.7z"/>
<path class="st0" d="M44.9,20.4V8.5H46c0.4,0,0.7-0.3,0.8-0.7c0,0,0,0,0-0.1v-3c0-0.4-0.2-0.7-0.6-0.8c0,0-0.1,0-0.1,0h-7.7
	c-0.4,0-0.7,0.3-0.8,0.7c0,0,0,0.1,0,0.1v3c0,0.4,0.3,0.7,0.7,0.8c0,0,0.1,0,0.1,0h1.1v6.3L25.5,1c-0.3-0.3-0.8-0.3-1,0c0,0,0,0,0,0
	L1,24.5c-0.2,0.1-0.2,0.3-0.3,0.5v5.5c0,0.3,0.2,0.6,0.5,0.7c0.3,0.1,0.6,0.1,0.8-0.1l2.1-2.1v15.2H1.5c-0.4,0-0.7,0.3-0.8,0.7
	c0,0,0,0.1,0,0.1v3.6c0,0.4,0.3,0.7,0.7,0.8c0,0,0.1,0,0.1,0h47c0.4,0,0.7-0.3,0.8-0.7c0,0,0-0.1,0-0.1v-3.6c0-0.4-0.3-0.7-0.7-0.8
	c0,0-0.1,0-0.1,0h-2.7V28.9l2.2,2.1c0.1,0.2,0.3,0.2,0.5,0.2c0.1,0,0.2,0,0.3-0.1c0.3-0.1,0.5-0.4,0.5-0.7V25c0-0.2-0.1-0.4-0.2-0.5
	L44.9,20.4z M4.2,28.9L25,8.1l20.8,20.8 M45.8,44.1H31.1v-8.3c0-3.3-2.7-6.1-6.1-6.1s-6.1,2.7-6.1,6.1l0,0v8.3H4.2"/>
<path class="st0" d="M34.7,37.5h6c0.4,0,0.7-0.3,0.8-0.7c0,0,0-0.1,0-0.1v-8.2c0-0.4-0.3-0.7-0.7-0.8c0,0-0.1,0-0.1,0h-6
	c-0.4,0-0.7,0.3-0.8,0.7c0,0,0,0.1,0,0.1v8.2C33.9,37.2,34.3,37.5,34.7,37.5L34.7,37.5z"/>
<path class="st0" d="M15.3,27.8h-6c-0.4,0-0.7,0.3-0.8,0.7c0,0,0,0.1,0,0.1v8.2c0,0.4,0.3,0.7,0.7,0.8c0,0,0.1,0,0.1,0h6
	c0.4,0,0.7-0.3,0.8-0.7c0,0,0-0.1,0-0.1v-8.2C16,28.2,15.7,27.8,15.3,27.8z"/>
</svg>
