<?xml version="1.0" encoding="utf-8"?>
<!-- Generator: Adobe Illustrator 21.1.0, SVG Export Plug-In . SVG Version: 6.00 Build 0)  -->
<svg version="1.1" id="Layer_1" xmlns="http://www.w3.org/2000/svg" xmlns:xlink="http://www.w3.org/1999/xlink" x="0px" y="0px"
	 viewBox="0 0 50 50" style="enable-background:new 0 0 50 50;" xml:space="preserve">
<style type="text/css">
	.st0{fill:none;stroke:#216176;stroke-width:1.36;stroke-linecap:square;stroke-miterlimit:10;}
</style>
<title>Social Entrepreneurship</title>
<path class="st0" d="M33.4,36.5H16.6v-19c0-5.3,1.6-10.5,4.6-14.8l0,0c1.4-2.1,4.3-2.7,6.4-1.2c0.5,0.3,0.9,0.7,1.2,1.2l0,0
	c3,4.4,4.6,9.5,4.6,14.8V36.5z"/>
<line class="st0" x1="20.5" y1="10.1" x2="31.9" y2="10.1"/>
<line class="st0" x1="16.6" y1="32.7" x2="30.3" y2="32.7"/>
<path class="st0" d="M11,34.9h5.5v-5.2h-0.3C13.3,29.7,11,32,11,34.9z"/>
<path class="st0" d="M39,34.9h-5.6v-5.2h0.3C36.7,29.7,39,32,39,34.9C39,34.9,39,34.9,39,34.9z"/>
<path class="st0" d="M22,39.2c-1.5,1-2,3-1,4.6c0.1,0.2,0.3,0.4,0.5,0.6c1.3,1.7,3.8,1.7,4.5,5c0,0-0.3-2.8,2.9-4.9
	c2.2-1.5,1-4.3-0.4-5.2"/>
<path class="st0" d="M23.6,41.4c-0.3,0.6-0.2,1.3,0.4,1.7c0.3,0.2,0.5,0.4,0.7,0.5"/>
<path class="st0" d="M22.9,21.9c0.4,0.6,1.1,0.9,1.9,0.8c1.1,0,2-0.3,2-1.4s-0.9-1.4-2-1.4l0,0c-1.1,0-2-0.4-2-1.4s0.9-1.4,2-1.4
	c0.7,0,1.3,0.2,1.8,0.7"/>
<line class="st0" x1="24.7" y1="17.3" x2="24.7" y2="16.1"/>
<line class="st0" x1="24.7" y1="24.1" x2="24.7" y2="22.8"/>
</svg>
