<?xml version="1.0" encoding="utf-8"?>
<!-- Generator: Adobe Illustrator 21.1.0, SVG Export Plug-In . SVG Version: 6.00 Build 0)  -->
<svg version="1.1" id="Layer_1" xmlns="http://www.w3.org/2000/svg" xmlns:xlink="http://www.w3.org/1999/xlink" x="0px" y="0px"
	 viewBox="0 0 50 50" style="enable-background:new 0 0 50 50;" xml:space="preserve">
<style type="text/css">
	.st0{fill:none;stroke:#216176;stroke-width:1.71;stroke-linecap:round;stroke-linejoin:round;}
</style>
<title>Community</title>
<g id="_3">
	<path class="st0" d="M27.9,20.2L27.9,20.2c-0.8,0.6-1.7,0.9-2.7,0.9c-1,0-1.9-0.3-2.7-0.9l0,0c-3.3,0-5.6,2.7-5.6,6v2.2
		c0,0.7,0.6,1.3,1.3,1.3c0,0,0,0,0,0h14c0.7,0,1.3-0.6,1.3-1.3c0,0,0,0,0,0v-2.2C33.4,22.9,31.2,20.2,27.9,20.2z"/>
	<line class="st0" x1="27.8" y1="20.2" x2="27.3" y2="18.1"/>
	<line class="st0" x1="22.6" y1="20.2" x2="23.1" y2="18.1"/>
	<path class="st0" d="M28.4,13.7V14c0,2.9-1.4,5.3-3.2,5.3S22,16.9,22,14v-0.1"/>
	<path class="st0" d="M22.6,9.9c-0.4,0.3-1.6,1.3-0.7,4.3c0,0,0.8-2.1,1.7-1.7c0.7,0.4,1.6,0.6,2.4,0.5c1.5-0.1,2.2-0.1,2.7,1.2
		c0,0,0.9-2.8-0.8-4.2c-0.8-0.7-1.9-1-3-0.9C24.1,9.1,23.2,9.3,22.6,9.9z"/>
</g>
<g id="_3-2">
	<path class="st0" d="M43.7,31.4L43.7,31.4c-0.8,0.6-1.7,0.9-2.7,0.9c-1,0-1.9-0.3-2.7-0.9l0,0c-3.3,0-5.5,2.7-5.5,6v2.2
		c0,0.7,0.5,1.3,1.2,1.3c0,0,0,0,0,0h14c0.7,0,1.3-0.6,1.3-1.3c0,0,0,0,0,0v-2.2C49.2,34.1,47,31.4,43.7,31.4z"/>
	<line class="st0" x1="43.6" y1="31.4" x2="43" y2="29.4"/>
	<line class="st0" x1="38.3" y1="31.4" x2="38.9" y2="29.4"/>
	<path class="st0" d="M44.2,24.9v0.3c0,2.9-1.4,5.2-3.2,5.2s-3.2-2.4-3.2-5.2v-0.1"/>
	<path class="st0" d="M38.3,21.1c-0.3,0.3-1.6,1.3-0.7,4.3c0,0,0.8-2.1,1.7-1.7c0.7,0.5,1.6,0.6,2.5,0.5c1.5-0.1,2.2-0.1,2.7,1.2
		c0,0,0.9-2.7-0.8-4.2c-0.8-0.7-1.9-1-3-0.9C39.8,20.3,39,20.6,38.3,21.1z"/>
</g>
<g id="_3-3">
	<path class="st0" d="M11.7,31.4L11.7,31.4C10.9,32,10,32.3,9,32.3c-1,0-1.9-0.3-2.7-0.9l0,0c-3.3,0-5.6,2.7-5.6,6v2.2
		c0,0.7,0.6,1.3,1.3,1.3c0,0,0,0,0,0H16c0.7,0,1.3-0.6,1.3-1.3c0,0,0,0,0,0v-2.2C17.3,34.1,15,31.4,11.7,31.4z"/>
	<line class="st0" x1="11.6" y1="31.4" x2="11.1" y2="29.4"/>
	<line class="st0" x1="6.4" y1="31.4" x2="6.9" y2="29.4"/>
	<path class="st0" d="M12.3,24.9c0,0.1,0,0.2,0,0.3c0,2.9-1.4,5.2-3.2,5.2s-3.2-2.4-3.2-5.2v-0.1"/>
	<path class="st0" d="M6.4,21.1c-0.3,0.3-1.6,1.3-0.7,4.3c0,0,0.8-2.1,1.7-1.7c0.7,0.5,1.6,0.6,2.4,0.5c1.5-0.1,2.2-0.1,2.7,1.2
		c0,0,0.9-2.7-0.8-4.2c-0.8-0.7-1.9-1-3-0.9C7.9,20.3,7.1,20.6,6.4,21.1z"/>
</g>
</svg>
