<?xml version="1.0" encoding="utf-8"?>
<!-- Generator: Adobe Illustrator 21.1.0, SVG Export Plug-In . SVG Version: 6.00 Build 0)  -->
<svg version="1.1" id="Layer_1" xmlns="http://www.w3.org/2000/svg" xmlns:xlink="http://www.w3.org/1999/xlink" x="0px" y="0px"
	 viewBox="0 0 50 50" style="enable-background:new 0 0 50 50;" xml:space="preserve">
<style type="text/css">
	.st0{fill:none;stroke:#216176;stroke-width:1.78;stroke-miterlimit:10;}
</style>
<title>Arts &amp;amp; Media</title>
<g id="_9">
	<polyline class="st0" points="6.4,44.6 4.7,45 6.9,36.4 36.2,7.2 	"/>
	<polyline class="st0" points="42.6,13.6 13.4,42.8 9.7,43.8 	"/>
	<line class="st0" x1="38.4" y1="9.3" x2="42.6" y2="13.6"/>
	<path class="st0" d="M42.6,13.6l1.3-1.3c1-1,1-2.6,0-3.6c0,0,0,0,0,0l-2.8-2.8c-1-1-2.6-1-3.7,0l-1.3,1.3"/>
	<line class="st0" x1="39.4" y1="10.4" x2="13.1" y2="36.6"/>
	<line class="st0" x1="7.8" y1="37.1" x2="10.8" y2="40"/>
	<line class="st0" x1="36.2" y1="45.4" x2="23.6" y2="32.9"/>
	<polyline class="st0" points="35.3,26.1 48.8,39.5 39.5,48.8 	"/>
	<polyline class="st0" points="14,23.3 1.3,10.5 10.5,1.3 26.1,16.8 	"/>
	<line class="st0" x1="44.5" y1="35.5" x2="42.8" y2="37.2"/>
	<line class="st0" x1="40.7" y1="31.8" x2="39" y2="33.5"/>
	<line class="st0" x1="37" y1="28" x2="35.3" y2="29.7"/>
	<line class="st0" x1="22" y1="13" x2="20.3" y2="14.7"/>
	<line class="st0" x1="18.2" y1="9.3" x2="15.5" y2="12"/>
	<line class="st0" x1="14.5" y1="5.5" x2="12.8" y2="7.2"/>
	<line class="st0" x1="40.7" y1="31.8" x2="38" y2="34.5"/>
</g>
</svg>
