<?xml version="1.0" encoding="utf-8"?>
<!-- Generator: Adobe Illustrator 21.1.0, SVG Export Plug-In . SVG Version: 6.00 Build 0)  -->
<svg version="1.1" id="Layer_1" xmlns="http://www.w3.org/2000/svg" xmlns:xlink="http://www.w3.org/1999/xlink" x="0px" y="0px"
	 viewBox="0 0 50 50" style="enable-background:new 0 0 50 50;" xml:space="preserve">
<style type="text/css">
	.st0{fill:none;stroke:#216176;stroke-width:2.69;stroke-linecap:square;stroke-miterlimit:10;}
</style>
<title>Human Rights</title>
<g id="_18">
	<path class="st0" d="M14.8,2.5h3.1c1.4,0,2.5,1.1,2.5,2.5v6.2l0,0h-8.2l0,0V5C12.3,3.6,13.4,2.5,14.8,2.5z"/>
	<path class="st0" d="M23,1.3h3.1c1.4,0,2.5,1.1,2.5,2.5v7.4l0,0h-8.2l0,0V3.8C20.4,2.4,21.6,1.3,23,1.3C23,1.3,23,1.3,23,1.3z"/>
	<path class="st0" d="M31.1,2.5h3.1c1.4,0,2.5,1.1,2.5,2.5v6.2l0,0h-8.2l0,0V5C28.6,3.6,29.7,2.5,31.1,2.5z"/>
	<path class="st0" d="M39.3,3.8h3.1c1.4,0,2.5,1.1,2.5,2.5v0v6.2l0,0h-6.2c-1.1,0-2-0.9-2-2V6.3C36.7,4.9,37.9,3.8,39.3,3.8
		C39.3,3.8,39.3,3.8,39.3,3.8z"/>
	<path class="st0" d="M17,48.7l-0.5-8.3c-0.1-1.3-0.7-2.5-1.6-3.4l-7.6-7.1c-2.4-2.3-2.9-6-1.2-8.8l6.2-9.9h15
		c1.9,0,3.4,1.5,3.4,3.4c0,0,0,0,0,0v1.8c0,1.9-1.5,3.4-3.4,3.4c0,0,0,0,0,0h-8.6"/>
	<path class="st0" d="M24.6,24.3c2.4,2,4.8,4.5,5.4,6.9"/>
	<path class="st0" d="M44.9,18v11c0,2.9-1,5.7-2.8,8l-0.4,0.5c-0.6,0.8-1,1.7-1.1,2.7l-0.9,8.5"/>
</g>
</svg>
