<?xml version="1.0" encoding="utf-8"?>
<!-- Generator: Adobe Illustrator 21.1.0, SVG Export Plug-In . SVG Version: 6.00 Build 0)  -->
<svg version="1.1" id="Layer_1" xmlns="http://www.w3.org/2000/svg" xmlns:xlink="http://www.w3.org/1999/xlink" x="0px" y="0px"
	 viewBox="0 0 50 50" style="enable-background:new 0 0 50 50;" xml:space="preserve">
<style type="text/css">
	.st0{fill:none;stroke:#216176;stroke-width:1.84;stroke-linecap:square;stroke-miterlimit:10;}
</style>
<title>Medical</title>
<g id="_19">
	<polyline class="st0" points="28.3,21.7 28.3,14.9 21.7,14.9 21.7,21.7 14.9,21.7 14.9,28.3 21.7,28.3 21.7,35.1 28.3,35.1 
		28.3,28.3 35.1,28.3 35.1,21.7 28.3,21.7 	"/>
	<ellipse transform="matrix(0.2265 -0.974 0.974 0.2265 -5.0121 43.692)" class="st0" cx="25" cy="25" rx="24.1" ry="24.1"/>
	<path class="st0" d="M39.1,13.2c6.4,7.8,5.3,19.4-2.5,25.8s-19.4,5.3-25.8-2.5s-5.3-19.4,2.5-25.8c6.5-5.4,15.9-5.6,22.6-0.5"/>
</g>
</svg>
