<?xml version="1.0" encoding="utf-8"?>
<!-- Generator: Adobe Illustrator 21.1.0, SVG Export Plug-In . SVG Version: 6.00 Build 0)  -->
<svg version="1.1" id="Layer_1" xmlns="http://www.w3.org/2000/svg" xmlns:xlink="http://www.w3.org/1999/xlink" x="0px" y="0px"
	 viewBox="0 0 50 50" style="enable-background:new 0 0 50 50;" xml:space="preserve">
<style type="text/css">
	.st0{fill:none;stroke:#216176;stroke-width:2.08;stroke-miterlimit:10;}
</style>
<title>Animals</title>
<path class="st0" d="M25,20.3c-9,0-16.3,6.2-16.3,13.8c0,3.9,1.8,7.5,4.9,9.9c1.8,1.5,3.9-0.1,6.1-1.8c1.8-1.3,3.7-2.8,5.5-2.8
	s3.5,1.5,5.2,2.9c0.9,0.8,1.8,1.5,2.8,2.1c0.4,0.2,0.9,0.3,1.4,0.4c0.5,0,1-0.2,1.5-0.5c3.2-2.4,5.1-6.1,5.2-10.1
	C41.3,26.5,34,20.3,25,20.3z"/>
<path class="st0" d="M17.4,19.6c1.4-0.1,2.7-0.9,3.4-2.2c0.9-1.5,1.3-3.2,1.3-5c0-1.8-0.4-3.5-1.3-5c-0.7-1.2-1.9-2.1-3.4-2.1
	C16,5.4,14.7,6.2,14,7.4c-0.9,1.5-1.3,3.2-1.3,5c0,1.8,0.4,3.5,1.3,5C14.7,18.7,16,19.5,17.4,19.6z"/>
<path class="st0" d="M32.6,19.6c1.4-0.1,2.7-0.9,3.4-2.2c0.9-1.5,1.3-3.2,1.3-5c0-1.8-0.4-3.5-1.3-5c-0.7-1.3-1.9-2.1-3.4-2.2
	c-1.4,0.1-2.7,0.9-3.4,2.2c-0.9,1.5-1.3,3.2-1.3,5c0,1.8,0.4,3.5,1.3,5C29.9,18.7,31.2,19.5,32.6,19.6z"/>
<path class="st0" d="M47.9,17.7c-0.7-1.6-2.6-2.3-4.2-1.5c-0.7,0.3-1.2,0.9-1.5,1.5C41.4,19,41,20.5,41,21.9c0,1.5,0.4,2.9,1.1,4.2
	c0.7,1.6,2.6,2.3,4.2,1.6c0.7-0.3,1.2-0.9,1.6-1.6c0.8-1.3,1.2-2.7,1.2-4.2C49,20.5,48.6,19,47.9,17.7z"/>
<path class="st0" d="M7.9,17.7C7.3,16.7,6.2,16,5,15.9c-1.2,0.1-2.3,0.8-2.9,1.8C1.4,19,1,20.5,1,21.9c0,1.5,0.4,2.9,1.1,4.2
	C2.7,27.2,3.8,27.9,5,28c1.2-0.1,2.3-0.8,2.9-1.8C8.6,24.9,9,23.4,9,21.9C9,20.5,8.6,19,7.9,17.7z"/>
<path class="st0" d="M36.4,33.6c0-5.3-5.1-9.7-11.4-9.7"/>
</svg>
