<?xml version="1.0" encoding="utf-8"?>
<!-- Generator: Adobe Illustrator 21.1.0, SVG Export Plug-In . SVG Version: 6.00 Build 0)  -->
<svg version="1.1" id="Layer_1" xmlns="http://www.w3.org/2000/svg" xmlns:xlink="http://www.w3.org/1999/xlink" x="0px" y="0px"
	 viewBox="0 0 50 50" style="enable-background:new 0 0 50 50;" xml:space="preserve">
<style type="text/css">
	.st0{fill:none;stroke:#216176;stroke-width:2.36;stroke-miterlimit:10;}
</style>
<title>Elderly</title>
<path class="st0" d="M21.5,43.6L21.5,43.6l13.3-29c2.3-4.7,0.3-10.3-4.3-12.5S20.3,1.8,18,6.4c-0.1,0.1-0.1,0.2-0.2,0.3
	c-0.5,1-0.1,2.1,0.9,2.6s2.1,0.1,2.6-0.9c0,0,0,0,0-0.1c1.3-2.8,4.6-4,7.4-2.8s4,4.6,2.8,7.4l0,0L18.2,42c0,0,0,0.1,0,0.1
	c-0.6,0.1-1.1,0.5-1.3,1l-1.7,3.8L20,49l1.7-3.8C22,44.7,21.9,44.1,21.5,43.6z"/>
</svg>
