<?xml version="1.0" encoding="utf-8"?>
<!-- Generator: Adobe Illustrator 21.1.0, SVG Export Plug-In . SVG Version: 6.00 Build 0)  -->
<svg version="1.1" id="Layer_1" xmlns="http://www.w3.org/2000/svg" xmlns:xlink="http://www.w3.org/1999/xlink" x="0px" y="0px"
	 viewBox="0 0 50 50" style="enable-background:new 0 0 50 50;" xml:space="preserve">
<style type="text/css">
	.st0{fill:none;stroke:#216176;stroke-width:2.23;stroke-linecap:square;stroke-miterlimit:10;}
</style>
<title>Technology</title>
<path class="st0" d="M11.4,8h27.3c1.8,0,3.3,1.5,3.3,3.3v27.3c0,1.8-1.5,3.3-3.3,3.3H11.4C9.5,42,8,40.5,8,38.7V11.4
	C8,9.5,9.5,8,11.4,8z"/>
<path class="st0" d="M35.7,23.8v11.9H14.3V14.3h17.5l2,1.9"/>
<path class="st0" d="M33.7,16.2l2,2v1.3"/>
<line class="st0" x1="46" y1="14.3" x2="48.9" y2="14.3"/>
<line class="st0" x1="46" y1="21.4" x2="48.9" y2="21.4"/>
<line class="st0" x1="46" y1="28.6" x2="48.9" y2="28.6"/>
<line class="st0" x1="46" y1="35.7" x2="48.9" y2="35.7"/>
<line class="st0" x1="1.1" y1="14.3" x2="4" y2="14.3"/>
<line class="st0" x1="1.1" y1="21.4" x2="4" y2="21.4"/>
<line class="st0" x1="1.1" y1="28.6" x2="4" y2="28.6"/>
<line class="st0" x1="1.1" y1="35.7" x2="4" y2="35.7"/>
<line class="st0" x1="35.7" y1="46" x2="35.7" y2="48.9"/>
<line class="st0" x1="28.6" y1="46" x2="28.6" y2="48.9"/>
<line class="st0" x1="21.4" y1="46" x2="21.4" y2="48.9"/>
<line class="st0" x1="14.3" y1="46" x2="14.3" y2="48.9"/>
<line class="st0" x1="35.7" y1="1.1" x2="35.7" y2="4"/>
<line class="st0" x1="28.6" y1="1.1" x2="28.6" y2="4"/>
<line class="st0" x1="21.4" y1="1.1" x2="21.4" y2="4"/>
<line class="st0" x1="14.3" y1="1.1" x2="14.3" y2="4"/>
</svg>
