<?xml version="1.0" encoding="utf-8"?>
<!-- Generator: Adobe Illustrator 21.1.0, SVG Export Plug-In . SVG Version: 6.00 Build 0)  -->
<svg version="1.1" id="Layer_1" xmlns="http://www.w3.org/2000/svg" xmlns:xlink="http://www.w3.org/1999/xlink" x="0px" y="0px"
	 viewBox="0 0 50 50" style="enable-background:new 0 0 50 50;" xml:space="preserve">
<style type="text/css">
	.st0{fill:none;stroke:#216176;stroke-width:1.91;stroke-miterlimit:10;}
	.st1{fill:none;stroke:#216176;stroke-width:1.91;stroke-linecap:round;stroke-miterlimit:10;}
</style>
<title>Sports</title>
<g id="_20">
	<path class="st0" d="M38.3,5c-11.1-7.3-26-4.3-33.4,6.7s-4.3,26,6.7,33.4s26,4.3,33.4-6.7c5.8-8.7,5.3-20-1.2-28.2
		c-0.2-0.3-0.4-0.5-0.6-0.7"/>
	<path class="st0" d="M48.8,27.6c-4.3,2.9-9.7-6.4-15.7-0.4c-5,4.5-7.1,10.6-8.4,15.5c-0.1,0.5-0.3,1-0.4,1.6l-0.2,1"/>
	<path class="st0" d="M1.2,22.5c4.3-5.3,14.1-3.6,19.8-9.3c3.9-4.2,2.8-6,3.1-8.9"/>
	<path class="st0" d="M42.1,41.9L42,42l-0.1,0.1"/>
	<path class="st0" d="M39.4,44.2L39.4,44.2"/>
	<path class="st1" d="M43.3,9.4c0,0-8.1-2.1-16.1,6.2c-14.8,15.3-17.4,28-17.4,28"/>
	<path class="st0" d="M8,8c0,0,9-0.4,19.6,9.9C43.6,33.6,42,42,42,42"/>
</g>
</svg>
