<?xml version="1.0" encoding="utf-8"?>
<!-- Generator: Adobe Illustrator 21.1.0, SVG Export Plug-In . SVG Version: 6.00 Build 0)  -->
<svg version="1.1" id="Layer_1" xmlns="http://www.w3.org/2000/svg" xmlns:xlink="http://www.w3.org/1999/xlink" x="0px" y="0px"
	 viewBox="0 0 512 512" style="enable-background:new 0 0 512 512;" xml:space="preserve">
<style type="text/css">
	.st0{fill:#216176;}
</style>
<g>
	<g>
		<path class="st0" d="M505.9,6.1c-8.1-8.1-21.2-8.1-29.2,0L6.1,476.7c-8.1,8.1-8.1,21.2,0,29.2c4,4,9.3,6.1,14.6,6.1
			s10.6-2,14.6-6.1L505.9,35.3C514,27.2,514,14.1,505.9,6.1z"/>
	</g>
</g>
<g>
	<g>
		<path class="st0" d="M505.9,476.7L35.3,6.1C27.2-2,14.1-2,6.1,6.1C-2,14.1-2,27.2,6.1,35.3l470.6,470.6c4,4,9.3,6.1,14.6,6.1
			s10.6-2,14.6-6.1C514,497.9,514,484.8,505.9,476.7z"/>
	</g>
</g>
</svg>
