<?xml version="1.0" encoding="utf-8"?>
<!-- Generator: Adobe Illustrator 22.0.1, SVG Export Plug-In . SVG Version: 6.00 Build 0)  -->
<svg version="1.1" id="Layer_1" xmlns="http://www.w3.org/2000/svg" xmlns:xlink="http://www.w3.org/1999/xlink" x="0px" y="0px"
	 viewBox="0 0 50 50" style="enable-background:new 0 0 50 50;" xml:space="preserve">
<style type="text/css">
	.st0{fill:none;stroke:#266279;stroke-linecap:round;stroke-linejoin:round;stroke-miterlimit:10;}
	.st1{fill:none;stroke:#47B89A;stroke-width:0.6681;stroke-linecap:round;stroke-linejoin:round;stroke-miterlimit:10;}
</style>
<g>
	<g>
		<path class="st0" d="M39.3,20.2V17c0-0.9-0.7-1.6-1.6-1.6v-3.2c0-6.1-5-11.2-11.2-11.2s-11.2,5-11.2,11.2v3.2
			c-0.9,0-1.6,0.7-1.6,1.6v3.2c0,0.9,0.7,1.6,1.6,1.6c0,4.4,2.6,8.3,6.4,10.1v4.3L9.1,40.9c0,0-6.4,1.6-6.4,4.8v3.2H25"/>
	</g>
</g>
<path class="st0" d="M47.3,33v12.8c0,1.8-1.4,3.2-3.2,3.2h-9.6c-1.8,0-3.2-1.4-3.2-3.2V33H47.3z"/>
<path class="st0" d="M44.1,33v-6.4c0-0.9-0.7-1.6-1.6-1.6h-6.4c-0.9,0-1.6,0.7-1.6,1.6V33"/>
<g>
	<path class="st1" d="M40.3,40.5h-1.9c-1.1,0-1.9-0.9-1.9-1.9v0c0-1.1,0.9-1.9,1.9-1.9h1.9c1.1,0,1.9,0.9,1.9,1.9v0"/>
	<path class="st1" d="M38.4,40.5h1.9c1.1,0,1.9,0.9,1.9,1.9v0c0,1.1-0.9,1.9-1.9,1.9h-1.9c-1.1,0-1.9-0.9-1.9-1.9v0"/>
	<line class="st1" x1="39.3" y1="36.7" x2="39.3" y2="34.8"/>
	<line class="st1" x1="39.3" y1="46.3" x2="39.3" y2="44.4"/>
</g>
</svg>
