<?xml version="1.0" encoding="utf-8"?>
<!-- Generator: Adobe Illustrator 21.1.0, SVG Export Plug-In . SVG Version: 6.00 Build 0)  -->
<svg version="1.1" id="Layer_1" xmlns="http://www.w3.org/2000/svg" xmlns:xlink="http://www.w3.org/1999/xlink" x="0px" y="0px"
	 viewBox="0 0 511 511" style="enable-background:new 0 0 511 511;" xml:space="preserve">
<style type="text/css">
	.st0{fill:#46BA98;}
</style>
<path class="st0" d="M272.4,0c-38.9,0-70.5,31.6-70.5,70.5s31.6,70.5,70.5,70.5c38.9,0,70.5-31.6,70.5-70.5S311.3,0,272.4,0z
	 M272.4,126c-30.6,0-55.5-24.9-55.5-55.5c0-30.6,24.9-55.5,55.5-55.5c30.6,0,55.5,24.9,55.5,55.5S303,126,272.4,126z"/>
<path class="st0" d="M277.2,61.7V43c8.7,0.7,13,7.7,16.9,1.2c5.4-9.1-6.4-12.9-16.9-12.9v-2.8c0-1.6-2-2.7-3.6-2.7
	c-1.9,0-3.6,1.2-3.6,2.7v3c-12.4,1.6-20.7,8.3-20.7,20.8c0,12.9,9.5,17.1,20.7,21.4v21.2c-11.5-1.4-15.3-13.2-20.8-5.4
	c-6.8,9.6,8.2,18,20.8,18v3c0,1.5,1.8,2.7,3.6,2.7c1.6,0,3.6-1.1,3.6-2.7v-3.3c11.2-1.7,20.1-8.8,20.1-22.6
	C297.4,71.6,289.3,66.1,277.2,61.7z M270.8,59.4c-2.5-1-4.5-2.1-6.1-3.3c-3.4-2.6-4.8-11.1,6.1-12.8V59.4z M276.4,94.7V76.1
	c2.3,1,4.2,2.2,5.7,3.7C285.4,83,286.5,92.5,276.4,94.7z"/>
<path class="st0" d="M388.7,212.8c1.6,0,3.6-1.1,3.6-2.7v-3.3c11.2-1.7,20.1-8.8,20.1-22.6c0-12.9-8.1-18.4-20.1-22.8v-18.8
	c8.7,0.7,13,7.7,16.9,1.2c5.4-9.1-6.4-12.9-16.9-12.9v-2.8c0-1.6-2-2.7-3.6-2.7c-1.9,0-3.6,1.2-3.6,2.7v3
	c-12.4,1.6-20.7,8.3-20.7,20.8c0,12.9,9.5,17.1,20.7,21.4v21.2c-11.5-1.4-15.3-13.2-20.8-5.4c-6.8,9.6,8.2,18,20.8,18v3
	C385.1,211.7,386.9,212.8,388.7,212.8z M391.5,175.9c2.3,1,4.2,2.2,5.7,3.7c3.3,3.2,4.4,12.7-5.7,14.9V175.9z M379.8,155.8
	c-3.4-2.6-4.8-11.1,6.1-12.8v16.1C383.5,158.1,381.4,157,379.8,155.8z"/>
<path class="st0" d="M356.9,402.8c-0.1,0.1-0.1,0.1-0.2,0.2c-12.3,14.1-29,16.5-35.8,16.8l-5.2,0h0c-4.1,0-7.5,3.3-7.5,7.5
	c0,4.1,3.3,7.5,7.5,7.5c23.2,0,40.4-8.3,52.2-21.9c90.4-97.1,90.4-97.1,90.5-97.3c8.3-9.5,17.8-30.1,0.8-46.8
	c-0.1-0.1-0.1-0.1-0.2-0.2c-13.4-12.3-31.3-11.1-46.6,3.3l-64.7,53.7c-3.2-6.2-8.9-12.1-18.2-14.4c8.6-11.9,13.4-26.3,13.4-41.3
	c0-38.9-31.6-70.5-70.5-70.5c-38.9,0-70.5,31.6-70.5,70.5c0,19,7.7,37,20.9,50.1l-28,11.6l-0.1-0.3c-3-7.9-11.8-11.8-19.6-8.9
	C95.1,352.7,88.9,355,54.4,368c-8.4,3.2-12.7,12.5-9.5,20.9l42,111.5c3.2,8.4,12.5,12.7,20.9,9.5c10.8-4.1,107.9-40.7,120.7-45.5
	c3.8-1.4,6.8-4.3,8.5-8c1.7-3.6,1.9-7.7,0.3-11.9c20.9-8.9,21.4-9.8,43.4-9.9c4.1,0,7.5-3.4,7.5-7.5c0-4.1-3.4-7.5-7.5-7.5
	c0,0,0,0,0,0c-24.4,0.1-27.1,1.6-48.7,10.8l-32-84.9l41-17c11.9-4.5,19.3-3.5,79.5-3.5c13.4,0,15.4,10.7,15.6,13.6
	c-0.2,2.1-1.4,12.6-11.6,14.3c-16.9,2.9-53.5,8.1-53.8,8.2c-4.1,0.6-6.9,4.4-6.4,8.5c0.5,3.7,3.7,6.4,7.4,6.4c0.4,0,0.7,0,1.1-0.1
	c0.4-0.1,37.1-5.3,54.2-8.2c16.1-2.7,22.3-16.2,23.7-25.3l71.2-59c0.1-0.1,0.2-0.1,0.3-0.2l0.3-0.3c6.7-6.3,16.7-11.9,26.2-3.3
	c10.7,10.6,0.7,23.4-1.6,26.1C444.1,309.1,356.9,402.8,356.9,402.8z M102.7,495.9c-0.7,0.2-1.4-0.1-1.7-0.8L59,383.6
	c-0.2-0.7,0.1-1.4,0.8-1.7c25.9-9.8,61.5-23.2,80.4-30.3L183,465.7C161.5,473.8,111.1,492.8,102.7,495.9z M223.5,450.1
	c0,0,0,0.1,0,0.2c0,0.1-0.1,0.1-0.1,0.1l-26.3,9.9c-2.1-5.7-40.4-107.1-42.9-113.9l26.3-9.9c0.1-0.1,0.3,0,0.3,0.1
	C182.3,340.9,221.9,445.8,223.5,450.1z M270.8,258.9c-2.5-1-4.5-2.1-6.1-3.3c-3.4-2.6-4.8-11.1,6.1-12.8V258.9z M310.6,310.2
	c-13.7,0-24.6-0.1-33.4-0.1c0-0.4,0-3.1,0-3.5c11.2-1.7,20.1-8.8,20.1-22.6c0-12.9-8.1-18.4-20.1-22.8v-18.8
	c8.7,0.7,13,7.7,16.9,1.2c5.4-9.1-6.4-12.9-16.9-12.9v-2.8c0-1.6-2-2.7-3.6-2.7c-1.9,0-3.6,1.1-3.6,2.7v3
	c-12.3,1.6-20.7,8.2-20.7,20.8c0,12.9,9.5,17.1,20.7,21.4v21.2c-12.1-1.5-15.1-13.4-20.8-5.4c-6.8,9.6,8.3,18,20.8,18
	c0,0.4,0,2.9,0,3.3c-5,0-9.2,0.2-12.8,0.3c-6.7,0.4-12.4,1.1-18.8,3.3c-13.5-10.5-21.5-26.6-21.5-43.9c0-30.6,24.9-55.5,55.5-55.5
	c30.6,0,55.5,24.9,55.5,55.5C327.9,285.2,321.6,299.7,310.6,310.2z M276.4,294.2v-18.5c6.6,2.9,8,6.1,8,9.8
	C284.4,290.3,281.2,293.1,276.4,294.2z"/>
<path class="st0" d="M441.3,156.4c1,4,5.1,6.4,9.1,5.4c4-1,6.4-5.1,5.4-9.1c-8-31.2-36-53-68.3-53c-38.9,0-70.5,31.6-70.5,70.5
	c0,38.9,31.6,70.5,70.5,70.5c30.7,0,57.7-19.6,67.1-48.9c1.3-3.9-0.9-8.2-4.8-9.4c-3.9-1.3-8.2,0.9-9.4,4.8
	c-7.4,23-28.6,38.5-52.8,38.5c-30.6,0-55.5-24.9-55.5-55.5c0-30.6,24.9-55.5,55.5-55.5C412.9,114.7,435,131.9,441.3,156.4z"/>
</svg>
