<?xml version="1.0" encoding="utf-8"?>
<!-- Generator: Adobe Illustrator 21.1.0, SVG Export Plug-In . SVG Version: 6.00 Build 0)  -->
<svg version="1.1" id="Capa_1" xmlns="http://www.w3.org/2000/svg" xmlns:xlink="http://www.w3.org/1999/xlink" x="0px" y="0px"
	 viewBox="0 0 512 512" style="enable-background:new 0 0 512 512;" xml:space="preserve">
<style type="text/css">
	.st0{fill:#46BA98;}
</style>
<g>
	<g>
		<g>
			<path class="st0" d="M497.5,184L497.5,184c-3.2-1.8-6.9-3.8-10.9-6c2.7-6.8,3.1-14.3,1.3-21.4c-4-12.2-13.1-22-24.9-26.9
				c-25.2-12.7-96.4-24.8-137.5-31C265.3,73,203.6,52,162.1,52C57.4,52,4.7,103.5,2.5,105.7c-2.4,2.4-3.2,6.1-1.8,9.3l42.7,102.4
				c0.9,2.2,2.8,4,5,4.8s4.8,0.6,6.9-0.6l74.2-40.5c14.4-8.1,32.2-7,45.4,2.8c9.1,7.2,16.7,16.1,22.6,26.1
				c7.3,12.1,15.2,24.5,23.4,36.9c-43.5,18.6-70.5,62.7-67.1,109.9s36.2,87.1,81.9,99.3c45.7,12.3,94.1-5.8,120.6-45
				s25.2-90.9-3.2-128.7c12.1-20.4,24.7-43.4,22.2-69.1c-1.1-10.1-4-19.9-8.6-28.9l104.9,49.7c13.8,6.5,30.2,1,37.2-12.6
				C515.8,208.1,510.8,191.4,497.5,184z M455.4,145c7.3,2.8,13.2,8.5,16,15.8c0.8,2.9,0.7,6-0.1,8.9c-22.4-12.1-52.2-27.5-85-43.3
				C409.9,130.1,433.1,136.3,455.4,145z M331,415.3c-23.7,23.7-58.3,33-90.7,24.3c-32.4-8.7-57.7-34-66.4-66.4
				c-8.7-32.4,0.6-67,24.3-90.7c9.3-9.2,20.3-16.3,32.5-21c0.8,1.1,1.6,2.3,2.3,3.4l2.9,4.2c6.4,9.2,17.8,13.6,28.8,11
				c10.9-2.6,19.2-11.5,20.9-22.6c9.7,2.2,19.1,6,27.6,11.2c6.5,3.9,12.5,8.6,17.8,13.9c2,2,3.8,4,5.5,6
				C367.4,325.9,365.1,380.7,331,415.3z M272.6,191.3c0.4-1.6,1.5-3,3.1-3.6c9.1-1.3,18.3,0.6,26.2,5.3c11.4,4.8,19.4,15.3,21,27.6
				c-0.5,10.3-3.6,20.4-9,29.2c-10-5-20.7-8.4-31.7-10.1C274.3,222.8,267.9,205.4,272.6,191.3z M489.8,218L489.8,218
				c-3.2,2.1-7.3,2.4-10.8,0.7l-134-63.5c-3.7-1.7-8.1-0.5-10.4,2.8c-2.4,3.4-2,8,0.9,11c12.4,12.4,20.4,28.5,23,45.9
				c1.8,18.7-7,36.6-17.1,54c-4-3.8-8.2-7.3-12.8-10.4c7.1-11.7,11-25.1,11.4-38.7c-1.8-18.6-13.5-34.8-30.7-42.3
				c-9.4-4.5-27-11.2-40.2-5.6c-6.1,2.6-10.7,7.7-12.6,13.9c-6.9,20.5,1.4,42.4,11.3,63c0,0,0.4,1,0.4,1.1c1.2,3.3,0.6,7-1.6,9.8
				s-5.6,4.3-9.1,3.9c-3-0.2-5.8-1.8-7.5-4.3l-2.9-4.2c-1.9-2.7-3.9-5.6-6-8.7c-10.2-15.2-19.9-30.5-28.9-45.2
				c-6.9-11.8-16-22.3-26.8-30.8c-18.6-13.9-43.7-15.6-64-4.3l-65.9,36l-36.7-88c13.9-11.3,62.1-45,143.4-45
				c89.1,0,288.1,108.1,327.2,129.9c3.4,1.9,5.5,5.5,5.6,9.4S493.1,216,489.8,218z"/>
			<path class="st0" d="M312.8,336.8c-7.2-6.9-17.3-9.9-27.1-8.1c-7.5,1.2-14.6,4.1-20.7,8.6l-23.9-23.9c6.8-5.4,16.3-5.7,23.4-0.8
				c2.2,2.2,5.3,3,8.2,2.2c2.9-0.8,5.2-3.1,6-6s-0.1-6.1-2.2-8.2c-11.7-11.7-31.8-11-47.8,0.5l-0.5-0.5c-3.3-3.3-8.7-3.3-12.1,0
				s-3.3,8.7,0,12.1l0.5,0.5c-11.5,16-12.1,36.1-0.5,47.8c7.2,6.9,17.3,9.9,27.1,8.1c7.5-1.2,14.6-4.1,20.7-8.6l23.9,23.9
				c-6.8,5.4-16.3,5.7-23.4,0.8c-3.3-3.3-8.7-3.3-12.1,0c-3.3,3.3-3.3,8.7,0,12.1c5.8,5.6,13.6,8.7,21.7,8.5
				c9.4-0.2,18.5-3.4,26.1-9l0.6,0.6c3.3,3.3,8.7,3.3,12.1,0s3.3-8.7,0-12.1l-0.5-0.5C323.8,368.6,324.5,348.5,312.8,336.8z
				 M241,352.2c-4.5,0.9-9.2-0.3-12.6-3.3c-5-7.1-4.7-16.6,0.8-23.4l22.6,22.6C248.4,350.2,244.8,351.6,241,352.2z M300,372.3
				l-22.6-22.6c3.3-2.1,6.9-3.5,10.7-4.1c4.5-0.9,9.2,0.3,12.6,3.3C305.7,356,305.4,365.5,300,372.3z"/>
		</g>
	</g>
</g>
</svg>
