<?xml version="1.0" encoding="utf-8"?>
<!-- Generator: Adobe Illustrator 22.0.1, SVG Export Plug-In . SVG Version: 6.00 Build 0)  -->
<svg version="1.1" id="Layer_1" xmlns="http://www.w3.org/2000/svg" xmlns:xlink="http://www.w3.org/1999/xlink" x="0px" y="0px"
	 viewBox="0 0 50 50" style="enable-background:new 0 0 50 50;" xml:space="preserve">
<style type="text/css">
	.st0{fill:none;stroke:#266279;stroke-linecap:round;stroke-linejoin:round;stroke-miterlimit:10;}
	.st1{fill:none;stroke:#47B89A;stroke-linecap:round;stroke-linejoin:round;stroke-miterlimit:10;}
</style>
<g>
	<g>
		<path class="st0" d="M1,44.2c0,0.9,0.7,1.6,1.6,1.6h43.2c0.9,0,1.6-0.7,1.6-1.6v-4.8c0-0.9-0.7-1.6-1.6-1.6H2.6
			c-0.9,0-1.6,0.7-1.6,1.6C1,39.4,1,44.2,1,44.2z"/>
		<path class="st0" d="M2.6,36.2c0,0.9,0.7,1.6,1.6,1.6h43.2c0.9,0,1.6-0.7,1.6-1.6v-4.8c0-0.9-0.7-1.6-1.6-1.6H4.2
			c-0.9,0-1.6,0.7-1.6,1.6V36.2z"/>
		<line class="st0" x1="9" y1="37.8" x2="9" y2="45.8"/>
		<line class="st0" x1="15.4" y1="37.8" x2="15.4" y2="45.8"/>
		<line class="st0" x1="37.8" y1="29.8" x2="37.8" y2="37.8"/>
		<line class="st0" x1="31.4" y1="29.8" x2="31.4" y2="37.8"/>
	</g>
	<g>
		<path class="st0" d="M10.6,21.8h-8c-0.9,0-1.6,0.7-1.6,1.6v4.8c0,0.9,0.7,1.6,1.6,1.6h43.2c0.9,0,1.6-0.7,1.6-1.6v-4.8
			c0-0.9-0.7-1.6-1.6-1.6h-6.4"/>
		<line class="st0" x1="9" y1="21.8" x2="9" y2="29.8"/>
		<line class="st0" x1="15.4" y1="26.6" x2="15.4" y2="29.8"/>
	</g>
	<g>
		<g>
			<g>
				<g>
					<polygon class="st1" points="25,4.2 37.8,9 25,13.8 12.2,9 					"/>
					<polyline class="st1" points="17,12.2 17,20.2 25,23.4 33,20.2 33,12.2 					"/>
					<line class="st1" x1="37.8" y1="9" x2="37.8" y2="15.4"/>
				</g>
			</g>
		</g>
	</g>
</g>
</svg>
