<?xml version="1.0" encoding="utf-8"?>
<!-- Generator: Adobe Illustrator 22.0.1, SVG Export Plug-In . SVG Version: 6.00 Build 0)  -->
<svg version="1.1" id="Layer_1" xmlns="http://www.w3.org/2000/svg" xmlns:xlink="http://www.w3.org/1999/xlink" x="0px" y="0px"
	 viewBox="0 0 50 50" style="enable-background:new 0 0 50 50;" xml:space="preserve">
<style type="text/css">
	.st0{fill:none;stroke:#266279;stroke-linecap:round;stroke-linejoin:round;stroke-miterlimit:10;}
	.st1{fill:none;stroke:#47B89A;stroke-linecap:round;stroke-linejoin:round;stroke-miterlimit:10;}
</style>
<g>
	<g>
		<rect x="35" y="13" transform="matrix(-0.5588 -0.8293 0.8293 -0.5588 35.3189 72.2195)" class="st0" width="3.8" height="27.5"/>
		<polyline class="st0" points="26.5,36 21.5,37.1 24.4,32.8 		"/>
		<line class="st0" x1="38.6" y1="23.3" x2="40.7" y2="26.4"/>
		<path class="st0" d="M45.6,18.5l-1.1-1.6c-0.6-0.9-1.8-1.1-2.6-0.5l-6.3,4.2"/>
	</g>
	<path class="st0" d="M0.7,10.8c3-3,4.6-4.6,7.6-7.6h20.9c2.1,0,3.8,1.7,3.8,3.8v0.9v3.8"/>
	<path class="st0" d="M32.9,38.3V43c0,2.1-1.7,3.8-3.8,3.8H4.5c-2.1,0-3.8-1.7-3.8-3.8V10.8h7.6V3.2"/>
	<line class="st0" x1="4.5" y1="16.5" x2="10.2" y2="16.5"/>
	<line class="st0" x1="4.5" y1="21.2" x2="10.2" y2="21.2"/>
	<line class="st0" x1="4.5" y1="25.9" x2="29.1" y2="25.9"/>
	<line class="st0" x1="4.5" y1="30.7" x2="17.3" y2="30.7"/>
	<line class="st0" x1="4.5" y1="35.4" x2="17.3" y2="35.4"/>
	<line class="st0" x1="4.5" y1="40.2" x2="29.1" y2="40.2"/>
	<g>
		<path class="st1" d="M27.2,20v-5c0-1.4-1.1-2.5-2.5-2.5h-5c-1.4,0-2.5,1.1-2.5,2.5v5H27.2z"/>
		<circle class="st1" cx="22.3" cy="8.8" r="2.5"/>
		<line class="st1" x1="24.7" y1="20" x2="24.7" y2="17.5"/>
	</g>
</g>
</svg>
