<?xml version="1.0" encoding="utf-8"?>
<!-- Generator: Adobe Illustrator 21.1.0, SVG Export Plug-In . SVG Version: 6.00 Build 0)  -->
<svg version="1.1" xmlns="http://www.w3.org/2000/svg" xmlns:xlink="http://www.w3.org/1999/xlink" x="0px" y="0px"
	 viewBox="0 0 400 400" style="enable-background:new 0 0 400 400;" xml:space="preserve">
<style type="text/css">
	.st0{fill:#41AF93;}
</style>
<g id="Layer_1">
</g>
<g id="Layer_2">
	<g>
		<g>
			<g>
				<g>
					<path class="st0" d="M193.9,358.1c0-1.2-1-2.2-2.2-2.2h-55.3c-1.2,0-2.2,1-2.2,2.2c0,1.2,1,2.2,2.2,2.2h55.3
						C193,360.5,193.9,359.5,193.9,358.1z"/>
				</g>
				<g>
					<path class="st0" d="M211.9,358.1c0-1.2-1-2.2-2.2-2.2h-9.2c-1.2,0-2.2,1-2.2,2.2c0,1.2,1,2.2,2.2,2.2h9.2
						C210.9,360.5,211.9,359.5,211.9,358.1z"/>
				</g>
				<g>
					<path class="st0" d="M217.5,360.5h6.1c1.2,0,2.2-1,2.2-2.2c0-1.2-1-2.2-2.2-2.2h-6.1c-1.2,0-2.2,1-2.2,2.2
						C215.3,359.5,216.2,360.5,217.5,360.5z"/>
				</g>
				<g>
					<path class="st0" d="M262.3,367h-55.5c-1.2,0-2.2,1-2.2,2.2c0,1.2,1,2.2,2.2,2.2h55.3c1.2,0,2.2-1,2.2-2.2
						C264.5,368,263.5,367,262.3,367z"/>
				</g>
				<g>
					<path class="st0" d="M198.1,367h-9.2c-1.2,0-2.2,1-2.2,2.2c0,1.2,1,2.2,2.2,2.2h9.2c1.2,0,2.2-1,2.2-2.2
						C200.2,368,199.3,367,198.1,367z"/>
				</g>
				<g>
					<path class="st0" d="M181.1,367H175c-1.2,0-2.2,1-2.2,2.2c0,1.2,1,2.2,2.2,2.2h6.1c1.2,0,2.2-1,2.2-2.2
						C183.3,368,182.3,367,181.1,367z"/>
				</g>
				<g>
					<path class="st0" d="M188.1,188.6c32.5,0,58.7-26.4,58.7-58.7S220.6,71,188.1,71c-32.5,0-58.7,26.4-58.7,58.9
						S155.9,188.6,188.1,188.6z M188.1,75.6c29.8,0,54.1,24.2,54.1,54.1s-24,54.3-54.1,54.3c-30.1,0-54.1-24.2-54.1-54.1
						C134.1,100.1,158.3,75.6,188.1,75.6z"/>
				</g>
				<g>
					<path class="st0" d="M188.1,173.6c24.2,0,43.9-19.6,43.9-43.9s-19.6-43.9-43.9-43.9c-24.2,0-43.9,19.6-43.9,43.9
						S164.1,173.6,188.1,173.6z M188.1,90.7c21.6,0,39.3,17.7,39.3,39.3s-17.7,39.3-39.3,39.3c-21.6,0-39.3-17.7-39.3-39.3
						C149.1,108.1,166.5,90.7,188.1,90.7z"/>
				</g>
				<g>
					<path class="st0" d="M385.7,244.8c0-6.3-0.7-12.1-2.2-17.9c0.5-5.1,0.7-10.4,0.7-15.5c0-84.1-56.5-157.3-137.2-178.7V6.1
						c0-1.2-1-2.2-2.2-2.2s-2.2,1-2.2,2.2v25.5c-14.1-3.4-28.6-5.1-43.2-5.1c-2.9,0-5.8,0-8.7,0.2V5.8c0-1.2-1-2.2-2.2-2.2
						c-1.2,0-2.2,1-2.2,2.2v21.1c-17.7,1.2-35.2,5.1-51.9,11.4V5.8c0-1.2-1-2.2-2.2-2.2c-1.2,0-2.2,1-2.2,2.2V40
						C59.4,68.6,14.3,135.8,14.3,211.4c0,29.1,6.5,56.7,19.4,82.4v39.5c0,1.2,1,2.2,2.2,2.2h23c1,0,1.9,0,2.9-0.2
						c34.9,38.8,84.8,61.1,137.2,61.1c51.6,0,100.4-21.1,135.8-59.4c5.1-0.5,9.7-1.2,14.1-4.4c6.8-5.1,9-13.1,5.6-20.8
						c1.5-2.4,3.2-4.8,4.6-7.3C376,289.2,385.7,267.6,385.7,244.8z M350.1,305.9c-5.6-3.9-15-4.4-30.3-1.7
						c-23.3,3.9-45.8,1.9-48.2,1.7c-4.8-1.5-10.2-2.9-15.3-4.4c-6.8-6.1-12.6-13.3-17-21.3l22.1,4.1c11.6,13.3,27.4,20.4,43.9,20.4
						c7,0,14.1-1.2,21.3-3.9c24-8.7,39-30.1,39-55.5c0-32.7-26.7-59.4-59.4-59.4c-29.3,0-54.1,21.1-58.7,49.7
						c-5.6-1.5-11.6-2.9-15.5-3.9c6.3-36.4,37.1-62.1,73.7-62.1c41.5,0,75.4,33.7,75.4,75.4C381.1,269.1,369.5,291.6,350.1,305.9z
						 M233.5,279c3.6,7.5,8.2,14.3,13.8,20.4c-8.5-1.9-15.3-3.2-17.5-3.4c-8.5-7.3-18.4-12.6-26.2-16c8.2-0.7,13.1-2.9,14.8-3.9
						L233.5,279z M303.8,237.1c-3.4-1.2-5.8-2.2-7-3.4c-1.2-1.2-1.9-2.9-1.9-4.8c0-2.2,0.7-3.9,2.4-5.1c1.5-1.5,3.6-2.2,6.5-2.4
						V237.1L303.8,237.1z M318.1,262.8c-1.7-4.1-4.6-7.8-8.5-9.9v-2.7c3.6,1.2,6.3,2.2,7.5,3.6c1.5,1.2,1.9,2.9,1.9,5.1
						C319.3,260.4,318.8,261.6,318.1,262.8z M316.4,282.4c1.5-2.2,2.2-5.6,2.7-7.8c2.2-1,4.1-2.2,5.8-3.6c3.9-3.4,5.8-7.8,5.8-13.1
						c0-5.3-1.7-9.5-5.1-12.4c-3.4-2.9-8.5-5.1-15.8-6.8h-0.2v-17.5c4.8,0.7,9.2,2.4,13.3,5.3l6.1-8.5c-6.1-4.1-12.4-6.5-19.2-7
						v-4.6H304v4.6c-6.1,0.2-10.9,2.2-14.5,5.6c-3.6,3.4-5.6,7.8-5.6,13.1c0,5.3,1.7,9.5,4.8,12.1s8.2,4.8,15.3,6.5v1.7
						c-23.5-6.3-40.2-10.7-52.1-13.8c4.1-26.4,26.9-46.3,54.1-46.3c30.3,0,54.8,24.5,54.8,54.8c0,28.1-18.7,44.8-35.9,51.4
						c-16,5.8-38.1,5.6-55.8-10.9l28.6,5.1C305,292.1,312.5,288.7,316.4,282.4z M18.9,211.4c0-73.2,43.4-138.2,110.5-166.3
						c0,17.9,0,31,0,49.9c0,1.2,1,2.2,2.2,2.2c1.2,0,2.2-1,2.2-2.2c0-10.4,0-33.7,0-51.9c16.7-6.5,33.9-10.4,51.9-11.6
						c0,7,0,23.3,0,30.5c0,1.2,1,2.2,2.2,2.2c1.2,0,2.2-1,2.2-2.2c0-7.3,0-23.5,0-30.8c2.9-0.2,5.8-0.2,8.7-0.2
						c14.5,0,29.1,1.7,43.2,5.1c0,15,0,54.3,0,58.9c0,1.2,1,2.2,2.2,2.2c1.2,0,2.2-1,2.2-2.2c0-13.6,0-44.4,0-57.7
						c78.3,21.3,132.8,92.6,132.8,174.1c0,1,0,2.2,0,3.2c-12.1-29.1-40.5-49.5-73.9-49.5c-38.8,0-71.5,27.2-78.5,65
						c-5.6-1.7-7.8-2.9-10.7-5.1c-34.2-28.1-70.1-29.3-88.2-27.9c-8.5,0.7-14.8,2.9-20.6,4.6c-6.3,1.9-11.6,3.6-18.7,3.6
						c-1.5-7.5-7.5-13.1-15-14.1c-0.5-7.5-6.8-13.6-14.3-13.6h-23c-1.2,0-2.2,1-2.2,2.2v102.8C23.8,260.4,18.9,236.4,18.9,211.4z
						 M73.5,196.1c6.1,1,10.7,6.3,10.7,12.8v87l0,0l0,0v9c0,6.3-4.6,11.6-10.7,12.8V196.1z M38.3,331.2V182.5h20.8
						c5.3,0,9.7,4.4,9.7,9.7v1.2V320v1.2c0,5.3-4.4,9.7-9.7,9.7H38.3V331.2z M66.7,333.6c3.9-2.4,6.5-6.5,6.8-11.4
						c8.7-1.2,15.3-8.5,15.3-17.5v-6.5h3.4c31.8,25.5,57,36.6,73,41.5H72.7C70.5,337.7,68.6,335.8,66.7,333.6z M77.3,344.2h243.9
						c-33.2,30.5-76.4,47.5-121.9,47.5C153.9,391.8,110.5,374.8,77.3,344.2z M326.1,339.9h-23c9.9-0.7,18.4-1.7,25.2-2.2
						C327.5,338.4,326.8,339.2,326.1,339.9z M346.4,328.7c-3.9,2.9-8,3.2-13.6,3.6c-36.1,3.2-80,7-120,7.3h-1.5
						c-9,0-17.2-0.2-24.5-0.7c-0.5,0-1.2,0-1.9,0c-3.6,0-37.8-2.2-90.4-44.8c-0.5-0.2-1-0.5-1.5-0.5h-4.4v-83.4
						c7.5,0,13.6-1.9,19.9-3.9c5.8-1.9,11.6-3.6,19.6-4.4c17.5-1.7,52.1-0.2,85.8,26.9c6.5,5.1,11.4,5.8,34.7,11.6h0.2l0,0
						c12.1,3.2,29.1,7.5,53.8,14.1c6.8,1.9,11.6,7.8,12.1,14.5c0,1,0,1.7-0.2,2.7c0,0.2,0,0.2,0.2,0.5c-0.2,2.4-1.2,5.8-2.4,7.8
						c-2.9,4.8-8.5,7.3-14.3,6.1l-79.5-14.5c-0.5,0-1.2,0-1.7,0.2c0,0-8.2,4.8-25.5,3.6c-1.2,0-2.2,0.7-2.4,1.9
						c-0.2,1.2,0.5,2.2,1.7,2.7c0.2,0,21.6,6.5,36.6,19.9c0.2,0.2,0.7,0.5,1.2,0.5c0.2,0,24.2,4.1,41.5,9.7c0.2,0,0.2,0,0.5,0
						c1,0,24.7,2.4,49.7-1.7c22.5-3.9,27.9,0.2,29.8,4.6C353.7,320.2,350.3,325.8,346.4,328.7z"/>
				</g>
			</g>
		</g>
		<g>
			<path class="st0" d="M189,150.5c-7.3,0-12-4-12-10.2c0-0.6,0.5-1.2,1.2-1.2c0.6,0,1.2,0.5,1.2,1.2c0,5.8,5,7.9,9.7,7.9
				c4.7,0,9.7-2.1,9.7-7.9c0-4.8-2.5-6-8.5-9l-3.5-1.7c-6.1-3-9.8-4.8-9.8-11.1c0-6.2,4.8-10.3,12-10.3c7.2,0,11.9,4,11.9,10.3
				c0,0.6-0.5,1.2-1.2,1.2c-0.6,0-1.2-0.5-1.2-1.2c0-5.9-4.9-8-9.6-8c-4.5,0-9.7,2.1-9.7,8c0,4.8,2.5,6,8.5,9l3.5,1.7
				c6.1,3,9.8,4.8,9.8,11.1C201,146.5,196.3,150.5,189,150.5L189,150.5z"/>
			<path class="st0" d="M188.9,109.8c-0.6,0-1.2-0.5-1.2-1.2V104c0-0.6,0.5-1.2,1.2-1.2c0.6,0,1.2,0.5,1.2,1.2v4.6
				C190,109.2,189.5,109.8,188.9,109.8z"/>
			<path class="st0" d="M188.9,155.9c-0.6,0-1.2-0.5-1.2-1.2v-4.6c0-0.6,0.5-1.2,1.2-1.2c0.6,0,1.2,0.5,1.2,1.2v4.6
				C190,155.4,189.5,155.9,188.9,155.9z"/>
		</g>
	</g>
</g>
</svg>
