<?xml version="1.0" encoding="utf-8"?>
<!-- Generator: Adobe Illustrator 22.0.1, SVG Export Plug-In . SVG Version: 6.00 Build 0)  -->
<svg version="1.1" id="Layer_1" xmlns="http://www.w3.org/2000/svg" xmlns:xlink="http://www.w3.org/1999/xlink" x="0px" y="0px"
	 viewBox="0 0 50 50" style="enable-background:new 0 0 50 50;" xml:space="preserve">
<style type="text/css">
	.st0{fill:none;stroke:#266279;stroke-linecap:round;stroke-linejoin:round;stroke-miterlimit:10;}
	.st1{fill:none;stroke:#47B89A;stroke-linecap:round;stroke-linejoin:round;stroke-miterlimit:10;}
</style>
<g>
	<path class="st0" d="M4.1,10.8c3-3,4.6-4.6,7.6-7.6h20.9c2.1,0,3.8,1.7,3.8,3.8v0.9v3.8"/>
	<path class="st0" d="M36.4,38.3V43c0,2.1-1.7,3.8-3.8,3.8H7.9c-2.1,0-3.8-1.7-3.8-3.8V10.8h7.6V3.2"/>
	<line class="st0" x1="7.9" y1="32.7" x2="20.7" y2="32.7"/>
	<line class="st0" x1="7.9" y1="37.4" x2="20.7" y2="37.4"/>
	<line class="st0" x1="7.9" y1="41.7" x2="29.4" y2="41.7"/>
	<path class="st1" d="M42.7,21.8h-3.2v-3.2c0-1.8-1.4-3.2-3.2-3.2S33,16.8,33,18.6v3.2h-3.2c-1.8,0-3.2,1.4-3.2,3.2
		c0,1.8,1.4,3.2,3.2,3.2H33v3.2c0,1.8,1.4,3.2,3.2,3.2s3.2-1.4,3.2-3.2v-3.2h3.2c1.8,0,3.2-1.4,3.2-3.2S44.5,21.8,42.7,21.8z"/>
	<polyline class="st0" points="8.6,15.2 13.4,15.2 15,21.6 18.2,8.8 21.4,15.2 27.8,15.2 	"/>
</g>
</svg>
