<?xml version="1.0" encoding="utf-8"?>
<!-- Generator: Adobe Illustrator 22.0.1, SVG Export Plug-In . SVG Version: 6.00 Build 0)  -->
<svg version="1.1" id="Layer_1" xmlns="http://www.w3.org/2000/svg" xmlns:xlink="http://www.w3.org/1999/xlink" x="0px" y="0px"
	 viewBox="0 0 50 50" style="enable-background:new 0 0 50 50;" xml:space="preserve">
<style type="text/css">
	.st0{fill:none;stroke:#47B89A;stroke-linecap:round;stroke-linejoin:round;stroke-miterlimit:10;}
	.st1{fill:none;stroke:#266279;stroke-linecap:round;stroke-linejoin:round;stroke-miterlimit:10;}
</style>
<g id="_x38_">
	<ellipse transform="matrix(0.2279 -0.9737 0.9737 0.2279 -4.392 44.4611)" class="st0" cx="25.8" cy="25" rx="11.1" ry="11.1"/>
	<path class="st0" d="M20.2,23.2c0.6-1.9,2.1-3.3,4-3.9"/>
	<circle class="st1" cx="25.8" cy="25" r="15.7"/>
	<g>
		<path class="st1" d="M46.8,27.7h2.8V11.8c0,0-2.8,0.4-3.8,4.4c-0.8,3.2-0.5,6.8,0.2,8.8"/>
		
			<rect x="46.6" y="27.7" transform="matrix(-1 -1.224647e-16 1.224647e-16 -1 96.1854 68.3349)" class="st1" width="3" height="13"/>
	</g>
	<g>
		<polyline class="st1" points="2.3,21.7 2.3,40.7 5.2,40.7 5.2,24.5 		"/>
		<path class="st1" d="M7.1,13.5v5.7c0,1.4-1.1,2.5-2.5,2.5H2.9c-1.4,0-2.5-1.1-2.5-2.5v-5.7"/>
		<line class="st0" x1="3.8" y1="18.6" x2="3.8" y2="13.5"/>
	</g>
</g>
</svg>
