<?xml version="1.0" encoding="utf-8"?>
<!-- Generator: Adobe Illustrator 21.1.0, SVG Export Plug-In . SVG Version: 6.00 Build 0)  -->
<svg version="1.1" id="Layer_1" xmlns="http://www.w3.org/2000/svg" xmlns:xlink="http://www.w3.org/1999/xlink" x="0px" y="0px"
	 viewBox="0 0 921 512" style="enable-background:new 0 0 921 512;" xml:space="preserve">
<style type="text/css">
	.st0{fill:#216176;}
	.st1{fill:#46BA98;}
	.st2{fill:#216176;stroke:#216176;stroke-width:2;stroke-miterlimit:10;}
</style>
<g>
	<g>
		<path class="st0" d="M294.2,306.8c-28.1,0-50.9,22.8-50.9,50.9s22.8,50.9,50.9,50.9s50.9-22.8,50.9-50.9
			C345.1,329.6,322.3,306.8,294.2,306.8z M294.2,401.6c-24.3,0-43.9-19.7-43.9-43.9c0-24.3,19.7-43.9,43.9-43.9s43.9,19.7,43.9,43.9
			C338.2,381.9,318.5,401.6,294.2,401.6z"/>
		<path class="st1" d="M320.7,354.4h-23.2v-23.2c0-1.6-1.3-2.8-2.8-2.8h-0.9c-1.6,0-2.8,1.3-2.8,2.8v23.2h-23.2
			c-1.5,0-2.8,1.3-2.8,2.8v0.9c0,1.5,1.3,2.8,2.8,2.8H291v23.2c0,1.6,1.3,2.8,2.8,2.8h0.9c1.5,0,2.8-1.3,2.8-2.8v-23.2h23.2
			c1.6,0,2.8-1.3,2.8-2.8v-0.9C323.5,355.7,322.2,354.4,320.7,354.4z"/>
		<path class="st2" d="M195.3,241.1c30,0,54.3-24.3,54.3-54.3s-24.3-54.3-54.3-54.3S141,156.8,141,186.8S165.3,241.1,195.3,241.1z
			 M195.3,137.5c27.2,0,49.2,22,49.2,49.2s-22,49.2-49.2,49.2S146,214,146,186.8S168.1,137.5,195.3,137.5z"/>
		<path class="st2" d="M99.3,381.8c2.3-72.1,39-127.2,96-127.2c36.1,0,62.7,20.1,78.7,51.8c1.5-0.6,3-1.1,4.6-1.6
			c-17.2-33.6-46-55.3-83.3-55.3c-62.7,0-101.4,61.6-101.4,137.6c94.3,0,84.9,0,153.1,0c-1.1-1.7-2-3.5-2.9-5.4
			C178.9,381.8,189.8,381.8,99.3,381.8z"/>
		<path class="st2" d="M241.2,147c4.9-22.1,24.5-38.6,48.1-38.6c27.2,0,49.2,22,49.2,49.2s-22,49.2-49.2,49.2
			c-12.9,0-24.7-5-33.4-13.1c-0.2,2-0.5,3.9-0.9,5.8c9.4,7.7,21.3,12.3,34.4,12.3c30,0,54.3-24.3,54.3-54.3s-24.3-54.3-54.3-54.3
			c-24.8,0-45.7,16.6-52.2,39.3C238.6,144.1,239.9,145.6,241.2,147z"/>
		<path class="st2" d="M390.7,358.1c0-76-38.7-137.6-101.4-137.6c-25.6,0-47.2,10.3-63.8,27.6c1.9,0.6,3.7,1.3,5.5,2.1
			c15.5-15.6,35.3-24.6,58.4-24.6c59.9,0,93.6,55.1,96,127.2c-13.9,0-25.7,0-35.8,0c0.2,1.8,0.3,3.6,0.3,5.4l0,0
			C361.2,358.1,374.6,358.1,390.7,358.1z"/>
		<path class="st2" d="M102.4,212c12.7,0,24.3-4.4,33.6-11.7c-0.4-1.9-0.8-3.8-1-5.7c-8.7,7.7-20.1,12.3-32.6,12.3
			c-27.2,0-49.2-22-49.2-49.2s22-49.2,49.2-49.2c23.2,0,42.7,16.1,47.9,37.7c1.3-1.4,2.7-2.8,4.1-4.1c-6.7-22.3-27.4-38.6-52-38.6
			c-30,0-54.3,24.3-54.3,54.3C48.1,187.7,72.4,212,102.4,212z"/>
		<path class="st2" d="M102.4,225.6c23.9,0,43.7,8.8,58.9,24c1.5-0.6,3.1-1.2,4.7-1.7c-16.6-17.2-38.1-27.4-63.6-27.4
			C39.7,220.5,1,282.1,1,358.1c49.1,0,70.1,0,88.5,0c0.2-1.8,0.5-3.5,0.8-5.4c-17.2,0-36.8,0-83.9,0
			C8.7,280.7,45.4,225.6,102.4,225.6z"/>
	</g>
</g>
</svg>
