<?xml version="1.0" encoding="utf-8"?>
<!-- Generator: Adobe Illustrator 21.1.0, SVG Export Plug-In . SVG Version: 6.00 Build 0)  -->
<svg version="1.1" id="Capa_1" xmlns="http://www.w3.org/2000/svg" xmlns:xlink="http://www.w3.org/1999/xlink" x="0px" y="0px"
	 viewBox="0 0 512 512" style="enable-background:new 0 0 512 512;" xml:space="preserve">
<style type="text/css">
	.st0{fill:#256278;}
	.st1{fill:#47BA99;}
</style>
<g>
	<path class="st0" d="M332,280c-4.4,0-8,3.6-8,8v144H52V80h88c4.4,0,8-3.6,8-8s-3.6-8-8-8H52v-8c0-22.1,17.9-40,40-40h192
		c4.4,0,8-3.6,8-8s-3.6-8-8-8H92C61.1,0,36,25.1,36,56v400c0,30.9,25.1,56,56,56h192c30.9,0,56-25.1,56-56V288
		C340,283.6,336.4,280,332,280z M284,496H92c-22.1,0-40-17.9-40-40v-8h272v8C324,478.1,306.1,496,284,496z"/>
	<path class="st0" d="M204,464h-32c-4.4,0-8,3.6-8,8s3.6,8,8,8h32c4.4,0,8-3.6,8-8S208.4,464,204,464z"/>
	<path class="st0" d="M134.3,34.3c-1.5,1.5-2.3,3.6-2.3,5.7s0.9,4.2,2.3,5.7c1.5,1.5,3.6,2.3,5.7,2.3s4.2-0.8,5.7-2.3
		s2.3-3.5,2.3-5.7s-0.9-4.2-2.3-5.7c-1.5-1.5-3.6-2.3-5.7-2.3S135.8,32.8,134.3,34.3z"/>
	<path class="st1" d="M212,136h48c4.4,0,8-3.6,8-8s-3.6-8-8-8h-48c-4.4,0-8,3.6-8,8S207.6,136,212,136z"/>
	<path class="st1" d="M420,120H292c-4.4,0-8,3.6-8,8s3.6,8,8,8h128c4.4,0,8-3.6,8-8S424.4,120,420,120z"/>
	<path class="st1" d="M420,160h-48c-4.4,0-8,3.6-8,8s3.6,8,8,8h48c4.4,0,8-3.6,8-8S424.4,160,420,160z"/>
	<path class="st1" d="M212,176h128c4.4,0,8-3.6,8-8s-3.6-8-8-8H212c-4.4,0-8,3.6-8,8S207.6,176,212,176z"/>
	<path class="st1" d="M420,80H212c-4.4,0-8,3.6-8,8s3.6,8,8,8h208c4.4,0,8-3.6,8-8S424.4,80,420,80z"/>
	<path class="st1" d="M420,200H212c-4.4,0-8,3.6-8,8s3.6,8,8,8h208c4.4,0,8-3.6,8-8S424.4,200,420,200z"/>
	<path class="st1" d="M420,32H212c-30.9,0-56,25.1-56,56v120c0,28.2,20.9,51.5,48,55.4v29.3c0,6.5,3.9,12.3,9.9,14.8
		c2,0.8,4.1,1.2,6.1,1.2c4.2,0,8.2-1.6,11.3-4.7l40-40H420c30.9,0,56-25.1,56-56V88C476,57.1,450.9,32,420,32z M460,208
		c0,22.1-17.9,40-40,40H268c-2.1,0-4.2,0.8-5.7,2.3L220,292.7V256c0-4.4-3.6-8-8-8c-22.1,0-40-17.9-40-40V88c0-22.1,17.9-40,40-40
		h208c22.1,0,40,17.9,40,40V208z"/>
</g>
</svg>
