<?xml version="1.0" encoding="utf-8"?>
<!-- Generator: Adobe Illustrator 22.0.1, SVG Export Plug-In . SVG Version: 6.00 Build 0)  -->
<svg version="1.1" id="Layer_1" xmlns="http://www.w3.org/2000/svg" xmlns:xlink="http://www.w3.org/1999/xlink" x="0px" y="0px"
	 viewBox="0 0 50 50" style="enable-background:new 0 0 50 50;" xml:space="preserve">
<style type="text/css">
	.st0{fill:none;stroke:#47B89A;stroke-width:0.6681;stroke-linecap:round;stroke-linejoin:round;stroke-miterlimit:10;}
	.st1{fill:none;stroke:#266279;stroke-linecap:round;stroke-linejoin:round;stroke-miterlimit:10;}
	.st2{fill:none;stroke:#47B89A;stroke-width:0.5229;stroke-linecap:round;stroke-linejoin:round;stroke-miterlimit:10;}
	.st3{fill:none;stroke:#266279;stroke-width:0.5229;stroke-linecap:round;stroke-linejoin:round;stroke-miterlimit:10;}
</style>
<g>
	<g>
		<path class="st0" d="M0.6,22.6c0,0,0.2,2.2,2.3,5.1c1.7,2.5-0.9,5.8-0.8,7.8c0,1.7,1.8,4.3,4.3,5.2c1.9,0.7,2.8,2.7,3.1,3.7
			c0.1,0.3,0.4,0.3,0.6,0.1c0.8-0.8,2.1-2.5,0.6-4.6c-2-2.7-3.9-4.8-0.2-7.1c3.5-2.2,6.9-3.3,8.6-9.7c0.3-1.3-0.2-2.6-1.4-3.3
			C16.1,19,13.1,18.3,7,18.6C7,18.6,0.1,19,0.6,22.6z"/>
		<path class="st0" d="M0.6,22.6c0,0,9.8,4.8,18.5-0.6"/>
		<path class="st0" d="M4.7,20.9c0,0-0.7,1.9,4.7,1.7s6-1.3,6-1.3"/>
	</g>
	<polygon class="st1" points="21.1,31.6 35,19.7 49.4,31.8 	"/>
	<polygon class="st1" points="45.3,33.1 45.3,49.3 24.8,49.3 24.8,31.8 45.3,31.8 	"/>
	<rect x="30.9" y="39.1" class="st1" width="8.3" height="10.2"/>
	<path class="st2" d="M35.3,11.5h-0.8l-1.7,3.3h0.9c0,0,0.1,0,0.1,0c0.2,0.1,0.3,0.3,0.3,0.5l0,0l-0.7,2.3l2.5-2.9h-1.2
		c0,0-0.1,0-0.1,0c-0.2-0.1-0.3-0.3-0.2-0.5l0,0L35.3,11.5z"/>
	<path class="st2" d="M41.9,11.5H41l-1.7,3.3h0.9c0,0,0.1,0,0.1,0c0.2,0.1,0.3,0.3,0.3,0.5l0,0l-0.7,2.3l2.5-2.9h-1.2
		c0,0-0.1,0-0.1,0c-0.2-0.1-0.3-0.3-0.2-0.5l0,0L41.9,11.5z"/>
	<path class="st3" d="M40.9,11.5c-1.6,0-3.4,0-4.1,0c-0.4,0-0.8,0-1.2,0c-2.5,0,0.5,0-1.4,0c-1.3,0-2.5-0.4-3.3-1
		C30,9.9,29.4,9,29.4,8c0-0.9,0.4-1.7,1.2-2.3c0.6-0.6,1.5-1,2.5-1.1c0,0,0-0.1,0-0.1c0.3-0.7,0.8-1.3,1.4-1.7
		c0.6-0.4,1.4-0.5,2-0.4c0,0,0,0,0.1,0C37,2,37.4,1.7,37.9,1.5c0.6-0.2,1.3-0.4,2.3-0.4c1.1,0,2.3,0.4,3.3,1.1
		C44.4,2.8,45,3.7,45,4.6c0,0.2,0,0.3,0,0.5c0,0,0,0.1,0,0.1c0.6,0.2,1,0.6,1.4,1.1C46.7,6.9,47,7.5,47,8.2c0,0.9-0.4,1.8-1.1,2.4
		c-0.7,0.6-1.6,0.9-2.6,0.9C41.4,11.5,41,11.5,40.9,11.5z"/>
</g>
</svg>
