<?xml version="1.0" encoding="utf-8"?>
<!-- Generator: Adobe Illustrator 21.1.0, SVG Export Plug-In . SVG Version: 6.00 Build 0)  -->
<svg version="1.1" id="Layer_1" xmlns="http://www.w3.org/2000/svg" xmlns:xlink="http://www.w3.org/1999/xlink" x="0px" y="0px"
	 viewBox="0 0 496 496" style="enable-background:new 0 0 496 496;" xml:space="preserve">
<style type="text/css">
	.st0{fill:#46BA98;}
</style>
<path class="st0" d="M448,126.6c0-15.9-12.9-28.8-28.8-28.8h-2.4c-5.7,0-11.2,1.7-16,4.8l-10.7,7.2c-3,2-6.5,3.1-10.1,3.1h-4.1
	c-4.9,0-9.4-1.9-12.8-5.3c-6.3-6.3-14.6-9.7-23.5-9.7h-1.3c-8.9,0-17.2,3.5-23.5,9.7c-1.2,1.2-2.5,2.1-3.9,2.9l-10.1-16.9
	c-2.1-3.5-3.2-7.5-3.2-11.6v-6.7c8.3,0,15-6.7,15-15V15c0-8.3-6.7-15-15-15h-75.2c-8.3,0-15,6.7-15,15v45.1c0,8.3,6.7,15,15,15v9.6
	c0,2.7-0.5,5.4-1.4,7.9l-7.3,19.5c-3.2-0.8-6.1-2.4-8.5-4.7c-6.3-6.3-14.6-9.7-23.5-9.7h-1.3c-8.9,0-17.2,3.5-23.5,9.7
	c-3.4,3.4-8,5.3-12.8,5.3h-4.1c-3.6,0-7.1-1.1-10.1-3l-10.7-7.2c-4.7-3.2-10.3-4.8-16-4.8h-2.4c-15.9,0-28.8,12.9-28.8,28.8
	c0,7.7,3,14.9,8.4,20.4l41.9,41.9C99.6,218.8,87,255.5,87,293.3c0,52.1,27.3,103.1,73.2,137.6l-17.7,35.3h234.9l-17.7-35.3
	c45.9-34.5,73.2-85.5,73.2-137.6c0-37.8-12.6-74.5-35.3-104.5l41.9-41.9C445,141.5,448,134.2,448,126.6z M267.6,195.9
	c-2.5-0.2-5-0.4-7.6-0.4c-2.5,0-5,0.1-7.5,0.4v-13.2c0-0.3,0.1-0.5,0.2-0.8l11.5-23c0.8-1.5,3.4-0.9,3.4,0.8v35.8
	C267.5,195.7,267.6,195.8,267.6,195.9z M260,210.6c3.8,0,7.6,0.4,11.3,1.1c6.1,12.6,18.9,21.4,33.8,21.4c0.6,0,1.1-0.1,1.6-0.2
	c8.6,10.7,13.4,24,13.4,37.8c0,33.2-27,60.2-60.2,60.2s-60.2-27-60.2-60.2S226.8,210.6,260,210.6z M222.4,60.2v-15h75.2v15H222.4z
	 M297.6,15v15h-75.2V15H297.6z M235,98c1.6-4.2,2.4-8.7,2.4-13.2v-9.6h45.1v6.7c0,6.8,1.9,13.5,5.4,19.3l14,23.3
	c2.1,3.5,3.2,7.5,3.2,11.6v81.9c-12.4,0-22.6-10.1-22.6-22.6v-35.8c0-9.3-7.5-16.8-16.8-16.8c-6.4,0-12.2,3.6-15,9.3l-11.5,23
	c-1.2,2.3-1.8,4.9-1.8,7.5V199c-8.2,2.6-15.8,6.6-22.6,11.7v-54.9c0-2.7,0.5-5.4,1.4-7.9L235,98z M87,126.6
	c0-7.6,6.2-13.8,13.7-13.8h2.4c2.7,0,5.4,0.8,7.6,2.3l10.7,7.2c5.5,3.6,11.8,5.6,18.4,5.6h4.1c8.9,0,17.2-3.5,23.5-9.7
	c3.4-3.4,8-5.3,12.8-5.3h1.3c4.9,0,9.4,1.9,12.8,5.3c3.9,3.9,8.7,6.6,13.9,8.1l-6.1,16.4c-1.6,4.2-2.4,8.7-2.4,13.2v24.6h-64.6
	l-44.2-44.2C88.5,133.7,87,130.2,87,126.6z M166.9,451.2l7.5-15h171.2l7.5,15H166.9z M199.8,406.1h37.6v-15h-37.6v-15h120.3v15
	h-67.7v15h67.7v15H199.8V406.1z M347.8,421.1h-12.6v-15c0-2.8-0.8-5.3-2.1-7.5c1.3-2.2,2.1-4.8,2.1-7.5v-15c0-8.3-6.7-15-15-15
	H199.8c-8.3,0-15,6.7-15,15v15c0,2.8,0.8,5.3,2.1,7.5c-1.3,2.2-2.1,4.8-2.1,7.5v15h-12.6c-43.9-31.7-70.1-79.4-70.1-127.8
	c0-35.4,12-70,33.9-97.8h63.9v30.1h0.1c-9.5,12.6-15.2,28.2-15.2,45.1c0,41.5,33.7,75.2,75.2,75.2s75.2-33.7,75.2-75.2
	c0-17-5.8-33.4-16.3-46.6c0.8-1.8,1.3-3.9,1.3-6v-22.6H384c21.9,27.7,33.9,62.3,33.9,97.8C417.9,341.8,391.8,389.4,347.8,421.1z
	 M428.9,136.3l-44.2,44.2h-64.6v-44.3c0-4.3-0.8-8.5-2.2-12.5c2.7-1.5,5.3-3.3,7.6-5.5c3.4-3.4,8-5.3,12.8-5.3h1.3
	c4.9,0,9.4,1.9,12.8,5.3c6.3,6.3,14.6,9.7,23.5,9.7h4.1c6.6,0,12.9-1.9,18.4-5.6l10.7-7.1c2.3-1.5,4.9-2.3,7.6-2.3h2.4
	c7.6,0,13.8,6.2,13.8,13.8C433,130.2,431.5,133.7,428.9,136.3z"/>
<path class="st0" d="M154.7,270.7h15v67.7h-15V270.7z"/>
<path class="st0" d="M154.7,353.4h15v15h-15V353.4z"/>
<path class="st0" d="M124.6,233.1h15v67.7h-15V233.1z"/>
<path class="st0" d="M124.6,315.8h15v15h-15V315.8z"/>
<path class="st0" d="M350.2,270.7h15v67.7h-15V270.7z"/>
<path class="st0" d="M350.2,353.4h15v15h-15V353.4z"/>
<path class="st0" d="M380.3,233.1h15v67.7h-15V233.1z"/>
<path class="st0" d="M380.3,315.8h15v15h-15V315.8z"/>
<path class="st0" d="M267.5,293.3h-15c-4.1,0-7.5-3.4-7.5-7.5h-15c0,12.4,10.1,22.6,22.6,22.6v7.5h15v-7.5
	c12.4,0,22.6-10.1,22.6-22.6s-10.1-22.6-22.6-22.6h-15c-4.1,0-7.5-3.4-7.5-7.5c0-4.1,3.4-7.5,7.5-7.5h15c4.1,0,7.5,3.4,7.5,7.5h15
	c0-12.4-10.1-22.6-22.6-22.6v-7.5h-15v7.5c-12.4,0-22.6,10.1-22.6,22.6c0,12.4,10.1,22.6,22.6,22.6h15c4.1,0,7.5,3.4,7.5,7.5
	S271.7,293.3,267.5,293.3z"/>
</svg>
