<?xml version="1.0" encoding="utf-8"?>
<!-- Generator: Adobe Illustrator 21.1.0, SVG Export Plug-In . SVG Version: 6.00 Build 0)  -->
<svg version="1.1" id="Layer_1" xmlns="http://www.w3.org/2000/svg" xmlns:xlink="http://www.w3.org/1999/xlink" x="0px" y="0px"
	 viewBox="0 0 171 135.7" style="enable-background:new 0 0 171 135.7;" xml:space="preserve">
<style type="text/css">
	.st0{fill:none;stroke:#266279;stroke-width:0.43;stroke-miterlimit:10;}
	.st1{fill:#266279;}
	.st2{fill:none;stroke:#47B89A;stroke-width:0.43;stroke-miterlimit:10;}
	.st3{fill:#47B89A;}
	.st4{fill:#FFFFFF;}
	.st5{fill:none;}
	.st6{fill:none;stroke:#47B89A;stroke-width:0.38;stroke-miterlimit:10;}
	.st7{fill:#F2F2F2;}
</style>
<title>Asset 1</title>
<g id="Layer_2">
	<g id="Layer_2-2">
		<path class="st0" d="M119.2,126.2c0,5.1-4.2,9.3-9.3,9.3c-5.1,0-9.3-4.2-9.3-9.3c0-5.1,4.2-9.3,9.3-9.3c0,0,0,0,0,0
			C115,116.8,119.2,121,119.2,126.2C119.2,126.2,119.2,126.2,119.2,126.2z"/>
		<rect x="32.4" y="33.4" class="st1" width="6.2" height="0.7"/>
		<rect x="35.1" y="30.6" class="st1" width="0.7" height="6.2"/>
		<path class="st2" d="M83.5,9.8c0,1.7-1.4,3.1-3.1,3.1s-3.1-1.4-3.1-3.1s1.4-3.1,3.1-3.1c0,0,0,0,0,0C82.1,6.7,83.5,8.1,83.5,9.8z"
			/>
		<rect x="21.6" y="111.3" class="st1" width="8.9" height="0.3"/>
		<path class="st3" d="M53.1,36.8c-6.1-0.4-10.9,5.7-11.3,11.5c-0.4,5.4,3.2,11.5,8.4,12.4c6.3,1.1,12.7-5.6,12.6-12.4
			C62.7,43,58.7,37.3,53.1,36.8"/>
		<path class="st3" d="M114.2,27.9c-6.1-0.4-10.9,5.7-11.3,11.5c-0.4,5.4,3.2,11.5,8.4,12.4c6.3,1.1,12.7-5.6,12.6-12.4
			C123.8,34.2,119.9,28.4,114.2,27.9"/>
		<path class="st3" d="M91.9,76.2c6.3-1.7,19.4-9.3,24.1-11.9c30.8-17.2,14.5,20.7,16.9,15.1c-4.6,10.9-20.4,37.1-56.7,31.3
			c-17.7-3.4-29.3-12.9-35.6-25.8c-5.4-11.2,1.1-14.5,6.5-14.1C54.6,71.4,73.2,81.1,91.9,76.2z"/>
		<path class="st1" d="M21.7,14.3c-0.6,0.2-1.1,0.4-1.8,0.5c0.6-0.4,1.1-1,1.4-1.7c-0.6,0.4-1.3,0.6-2,0.7c-1.2-1.2-3.1-1.3-4.3-0.1
			c0,0,0,0,0,0c-0.8,0.7-1.1,1.9-0.9,2.9c-2.5-0.1-4.8-1.3-6.3-3.2c-0.3,0.5-0.4,1-0.4,1.6c0,1,0.5,2,1.4,2.5c-0.5,0-1-0.1-1.4-0.4
			l0,0c0,1.5,1,2.7,2.5,3c-0.3,0.1-0.5,0.1-0.8,0.1c-0.2,0-0.4,0-0.6-0.1c0.4,1.2,1.5,2.1,2.9,2.1c-1.1,0.9-2.4,1.3-3.8,1.3
			c-0.2,0-0.5,0-0.7,0c1.4,0.9,3,1.4,4.7,1.4c4.8,0,8.7-3.8,8.7-8.6c0,0,0-0.1,0-0.1v-0.4C20.8,15.4,21.3,14.9,21.7,14.3z"/>
		<path class="st1" d="M171,72.7c0,4.2-3.4,7.7-7.7,7.7c-4.2,0-7.7-3.4-7.7-7.7c0-4.2,3.4-7.7,7.7-7.7l0,0
			C167.6,65,171,68.4,171,72.7C171,72.7,171,72.7,171,72.7z"/>
		<path class="st4" d="M162.3,76.8v-3.8h-1.2v-1.4h1.2v-1c-0.1-1,0.7-1.9,1.7-1.9c0.1,0,0.2,0,0.3,0c0.5,0,1.1,0,1.3,0.1v1.3h-0.9
			c-0.6,0-0.7,0.3-0.7,0.7v0.9h1.4l-0.2,1.4h-1.3v3.8L162.3,76.8z"/>
		<path id="WhatsApp" class="st1" d="M16.8,96.2c0,3.9-3.2,7.1-7.2,7.1c0,0,0,0,0,0c-1.2,0-2.4-0.3-3.5-0.9l-4,1.3l1.3-3.8
			c-0.7-1.1-1-2.4-1-3.7c0-4,3.2-7.2,7.2-7.2C13.6,89,16.8,92.2,16.8,96.2L16.8,96.2z M9.6,90c-3.5,0-6.3,2.8-6.3,6.2
			c0,1.3,0.4,2.6,1.2,3.7l-0.8,2.3l2.4-0.8c2.9,1.9,6.7,1.2,8.7-1.7c1.9-2.9,1.2-6.7-1.7-8.7C12.1,90.4,10.9,90,9.6,90z M13.4,97.9
			c0-0.1-0.2-0.1-0.4-0.2s-1.1-0.5-1.3-0.6s-0.3-0.1-0.4,0.1s-0.5,0.6-0.6,0.7s-0.2,0.1-0.4,0c-0.5-0.2-1-0.5-1.5-0.9
			c-0.4-0.4-0.7-0.8-1-1.3c-0.1-0.1,0-0.3,0.1-0.3c0.1-0.1,0.2-0.2,0.3-0.3c0.1-0.1,0.1-0.2,0.2-0.3c0.1-0.1,0.1-0.2,0-0.3
			c-0.1-0.1-0.4-1-0.6-1.3s-0.3-0.3-0.4-0.3H7.1c-0.2,0-0.4,0-0.5,0.2C6.2,93.4,6,94,6,94.5c0.1,0.7,0.3,1.3,0.8,1.9
			c0.8,1.2,1.8,2.1,3.1,2.7c1.9,0.7,1.9,0.5,2.2,0.5c0.5-0.1,1-0.4,1.2-0.9C13.4,98.5,13.4,98.2,13.4,97.9L13.4,97.9z"/>
		<path class="st4" d="M53.2,0.4c4.2,0,7.6,3.4,7.6,7.6c0,1.8-0.6,3.5-1.7,4.8c0.4,1.3,1.3,2.3,2.6,2.8h-8.4c-4.2,0-7.6-3.4-7.6-7.6
			C45.6,3.8,49,0.4,53.2,0.4C53.1,0.4,53.1,0.4,53.2,0.4z"/>
		<path class="st1" d="M61.6,16h-8.4c-4.4,0-8-3.6-8-8c0-4.4,3.6-8,8-8s8,3.6,8,8c0,1.8-0.6,3.5-1.7,4.9c0.4,1.1,1.2,1.9,2.3,2.3
			c0.2,0.1,0.3,0.3,0.3,0.4C62,15.9,61.8,16,61.6,16z M53.3,15.2h6.8c-0.7-0.6-1.2-1.4-1.5-2.2c0-0.1,0-0.3,0.1-0.4
			c2.5-3.1,2.1-7.6-1-10.1c-3.1-2.5-7.6-2.1-10.1,1s-2.1,7.6,1,10.1c1.3,1.1,2.9,1.6,4.6,1.6H53.3z"/>
		<rect x="49" y="6.6" class="st1" width="7.4" height="0.8"/>
		<rect x="49" y="9.3" class="st1" width="7.4" height="0.8"/>
		<path class="st1" d="M155.6,32.5h-3.8c-0.7,0-1.3-0.6-1.3-1.3v0v-5.9c0-0.7,0.6-1.3,1.3-1.3h3.9v0.9h-3.9c-0.2,0-0.4,0.2-0.4,0.4
			v5.9c0,0.2,0.2,0.4,0.4,0.4c0,0,0,0,0,0h3.8V32l0.4-0.2l0.4,0.7L155.6,32.5z"/>
		<path class="st5" d="M164.9,28c0.6-0.1,1-0.6,1-1.2c-0.1-0.6-0.5-1.1-1.1-1.1c0.4-0.1,0.7-0.5,0.6-0.9c-0.1-0.7-0.7-1.2-1.4-1.2
			h-3.1l0.7-2.9c0.1-0.5,0-1-0.1-1.5c-0.3-0.8-1-1.3-1.4-1.1s-0.4,0.8-0.3,1.4c-0.2,0.8-0.6,1.6-1.2,2.2c-0.6,0.7-1.3,1.4-2,2
			c-0.4,0.4-0.8,0.8-1.2,1.2c-0.2,0.3-0.3,0.5-0.4,0.9c-0.1,1.8,0,3.7,0.2,5.5c0.5,0.6,1.1,1,1.9,1.1c0.2,0,6.7,0,6.8,0
			c0.7,0,1.3-0.5,1.3-1.2c0-0.4-0.2-0.7-0.4-0.9c0.6,0,1.2-0.6,1.2-1.2C165.9,28.6,165.5,28.1,164.9,28z"/>
		<path class="st1" d="M159.4,32.9c-2.4,0-2.5,0-2.6,0c-0.9-0.1-1.6-0.6-2.1-1.4c-0.3-0.5-0.3-5.6-0.2-5.9c0.1-0.4,0.3-0.7,0.5-1
			c0.4-0.4,0.7-0.8,1.2-1.2l0.2-0.1c0.7-0.6,1.3-1.2,1.9-1.8c0.5-0.5,0.9-1.2,1.1-1.9v-0.2c0-0.6,0-1.3,0.6-1.6s1.6,0.3,2,1.3
			c0.2,0.6,0.2,1.2,0.2,1.7l-0.6,2.3h2.6h0.1c0.9,0,1.7,0.7,1.7,1.6c0,0.3-0.1,0.5-0.2,0.8c0.4,0.3,0.7,0.8,0.7,1.3
			c0,0.4-0.2,0.9-0.5,1.2c0.6,0.7,0.6,1.7-0.1,2.3c-0.1,0.1-0.2,0.2-0.4,0.3c0.1,0.2,0.2,0.4,0.1,0.7c0,0.9-0.8,1.7-1.8,1.7
			L159.4,32.9L159.4,32.9z M155.5,31.1c0.4,0.5,0.9,0.8,1.5,0.9h6.7c0.4,0,0.8-0.3,0.9-0.8c0-0.2-0.1-0.4-0.3-0.5
			c-0.1-0.1-0.2-0.3-0.1-0.5c0.1-0.2,0.2-0.3,0.4-0.3c0.4,0,0.8-0.3,0.8-0.8c0-0.4-0.2-0.7-0.6-0.7c-0.2,0-0.4-0.2-0.4-0.5
			c0-0.2,0.2-0.4,0.4-0.4c0.4-0.1,0.6-0.4,0.6-0.7c-0.1-0.4-0.4-0.6-0.7-0.7c-0.2,0-0.4-0.2-0.4-0.5c0,0,0,0,0,0
			c0-0.2,0.2-0.4,0.4-0.4c0.2-0.1,0.3-0.3,0.3-0.5c-0.1-0.5-0.5-0.8-0.9-0.7h-3.1c-0.1,0-0.3-0.1-0.4-0.2c-0.1-0.1-0.1-0.3-0.1-0.4
			l0.7-2.9c0.1-0.4,0-0.8-0.1-1.2c-0.2-0.5-0.6-0.8-0.8-0.8s-0.1,0.5-0.1,0.8v0.3c-0.2,0.9-0.7,1.8-1.3,2.5
			c-0.6,0.7-1.2,1.3-1.9,1.9l-0.2,0.1c-0.4,0.3-0.7,0.7-1.1,1.1c-0.1,0.2-0.3,0.4-0.3,0.7C155.3,27.7,155.4,29.4,155.5,31.1z"/>
		<rect x="141.9" y="109.9" class="st3" width="6.6" height="0.7"/>
		<rect x="144.9" y="106.9" class="st3" width="0.7" height="6.6"/>
		<rect x="34.4" y="126.8" class="st1" width="6.5" height="0.7"/>
		<rect x="37.3" y="123.9" class="st1" width="0.7" height="6.5"/>
		<path class="st1" d="M64.3,133.3c-1.3,0-2.3-1.1-2.3-2.4c0-1.3,1.1-2.3,2.4-2.3c1.3,0,2.3,1.1,2.3,2.4c0,0,0,0,0,0
			C66.7,132.3,65.6,133.3,64.3,133.3z M64.3,129.3c-0.9,0-1.7,0.8-1.7,1.7c0,0.9,0.8,1.7,1.7,1.7c0.9,0,1.7-0.8,1.7-1.7
			C66.1,130.1,65.3,129.3,64.3,129.3C64.4,129.3,64.4,129.3,64.3,129.3z"/>
		<path class="st1" d="M164.4,101.1c-1.4,0-2.5-1.2-2.5-2.6c0-1.4,1.2-2.5,2.6-2.5c1.4,0,2.5,1.1,2.5,2.5
			C167,99.9,165.9,101.1,164.4,101.1C164.5,101.1,164.5,101.1,164.4,101.1z M164.4,96.6c-1.1,0-2,0.9-2,2s0.9,2,2,2s2-0.9,2-2
			S165.5,96.6,164.4,96.6z"/>
		<rect x="9.5" y="75.8" class="st1" width="9.4" height="0.4"/>
		<rect x="150" y="49.4" class="st1" width="9.4" height="0.5"/>
		<polygon class="st1" points="7.1,57.1 0,51.6 0,50.4 6.4,50.4 6.4,51.1 0.7,51.1 0.7,51.2 7.1,56.2 10.5,53.6 10.9,54.2 		"/>
		<path class="st1" d="M14.2,60.6H0V50.4h14.2V60.6z M0.7,59.9h12.8v-8.7H0.7V59.9z"/>
		
			<rect x="6.2" y="53.6" transform="matrix(0.7903 -0.6128 0.6128 0.7903 -30.8845 17.7544)" class="st1" width="8.6" height="0.7"/>
		<path class="st3" d="M64.1,132.4c0,1.5-1.2,2.7-2.7,2.7s-2.7-1.2-2.7-2.7c0-1.5,1.2-2.7,2.7-2.7h0
			C62.9,129.7,64.1,130.9,64.1,132.4z"/>
		<path class="st6" d="M126.6,11.1c0,4-3.2,7.2-7.2,7.2c-4,0-7.2-3.2-7.2-7.2s3.2-7.2,7.2-7.2C123.4,3.9,126.6,7.1,126.6,11.1
			C126.6,11.1,126.6,11.1,126.6,11.1z"/>
		<path class="st4" d="M118.8,11.2v1h-0.7c-0.9,0-1.7,0.7-1.7,1.7V15h6.3v-1.2c0-0.9-0.7-1.7-1.7-1.7c0,0,0,0,0,0h-0.7v-1
			L118.8,11.2z"/>
		<path class="st1" d="M122.8,15.1h-6.5v-1.3c0-1,0.7-1.8,1.7-1.8c0,0,0,0,0,0h0.7v-0.9h0.2v1h-0.8c-0.9,0-1.6,0.7-1.6,1.6
			c0,0,0,0,0,0V15h6.1v-1.2c0-0.9-0.7-1.6-1.6-1.6c0,0,0,0,0,0h-0.8v-1h0.2V12h0.6c1,0,1.8,0.8,1.8,1.8c0,0,0,0,0,0L122.8,15.1z"/>
		<path class="st7" d="M120.8,10.8h1.6c-0.7-0.1-0.4-2-0.7-3.1c-0.3-0.8-1.1-1.4-2-1.2l0,0c-0.9-0.1-1.7,0.4-2,1.2
			c-0.3,1.1,0,3-0.7,3.1h1.4l-0.3-2.3c0.8,0,1.6-0.4,2.1-1.2c0,0,0.2,1,0.9,1.2L120.8,10.8z"/>
		<path class="st4" d="M118,8.5v1.4c0,0.8,0.7,1.5,1.5,1.5l0,0c0.8,0,1.5-0.7,1.5-1.5V8.6c0-0.1,0-0.1,0-0.1l0,0
			c-0.7-0.1-0.9-1.2-0.9-1.2C119.7,8.1,118.9,8.5,118,8.5L118,8.5z"/>
		<rect x="116.9" y="10.7" class="st1" width="1.4" height="0.2"/>
		<path class="st1" d="M122.4,10.9h-1.6v-0.2h1.3c-0.3-0.5-0.4-1-0.3-1.6c0-0.5-0.1-0.9-0.2-1.4c-0.3-0.8-1.1-1.3-1.9-1.2l0,0
			c-0.8-0.1-1.6,0.4-1.9,1.2c-0.1,0.4-0.2,0.9-0.2,1.4c0,0.9-0.1,1.7-0.6,1.8v-0.2c0.4-0.1,0.4-0.8,0.5-1.6c0-0.5,0.1-0.9,0.2-1.4
			c0.3-0.9,0.9-1.3,2.1-1.3l0,0c1.2,0,1.8,0.4,2.1,1.3c0.1,0.5,0.2,0.9,0.2,1.4c0,0.8,0.1,1.5,0.5,1.6L122.4,10.9z"/>
		<path class="st1" d="M119.5,11.4c-0.9,0-1.6-0.7-1.6-1.6c0,0,0,0,0,0V8.4h0.1c0.8,0,1.6-0.4,2-1.1l0.1-0.2v0.2c0,0,0.2,1,0.8,1.1
			l0,0l0.1,0.1v0c0,0,0,0.1,0,0.1v1.2C121,10.7,120.4,11.4,119.5,11.4z M118.1,8.5v1.3c0,0.8,0.6,1.4,1.4,1.4c0.8,0,1.4-0.6,1.4-1.4
			V8.6c0,0,0-0.1,0-0.1c-0.5-0.1-0.8-0.7-0.8-1C119.6,8.2,118.9,8.5,118.1,8.5z"/>
		<path class="st1" d="M119.5,13.5c-0.7,0-1.3-0.6-1.3-1.3c0,0,0,0,0,0h0.2c-0.1,0.6,0.4,1.1,1,1.2s1.1-0.4,1.2-1c0-0.1,0-0.1,0-0.2
			h0.2C120.8,12.9,120.2,13.5,119.5,13.5C119.5,13.5,119.5,13.5,119.5,13.5z"/>
		<path class="st1" d="M119.6,10.5c-0.2,0-0.3,0-0.5-0.1l0.1-0.2c0.3,0.2,0.6,0.2,0.8,0l0.1,0.1C120,10.5,119.8,10.5,119.6,10.5z"/>
		<rect x="119.4" y="10.7" class="st1" width="0.4" height="0.2"/>
		<path class="st7" d="M112.4,127.6h-0.3l-1.8,2.8l-1.8-2.8h-0.3c-1.3,0-2.3,1.2-2.3,2.5v1.9h8.7v-1.8
			C114.7,128.8,113.7,127.7,112.4,127.6C112.4,127.6,112.4,127.6,112.4,127.6z"/>
		<path class="st1" d="M110.3,126.8c-1.3,0-2.4-0.9-2.6-2.2c-0.4,0-0.7-0.3-0.7-0.7V123c0-0.4,0.3-0.7,0.7-0.7v-0.2
			c0.1-1.4,1.3-2.6,2.8-2.5c1.3,0.1,2.4,1.1,2.5,2.5v0.2c0.4,0,0.6,0.3,0.7,0.7v0.8c0,0.4-0.3,0.7-0.7,0.7
			C112.7,125.9,111.6,126.8,110.3,126.8z M108,124.3v0.2c0.1,1.3,1.3,2.2,2.6,2c1.1-0.1,1.9-1,2-2v-0.2h0.2c0.2,0,0.5-0.1,0.5-0.4
			c0,0,0,0,0,0V123c0-0.2-0.2-0.4-0.4-0.4c0,0,0,0,0,0h-0.2v-0.5c-0.1-1.3-1.2-2.2-2.5-2.2c-1.2,0.1-2.1,1-2.2,2.2v0.5h-0.2
			c-0.2,0-0.4,0.1-0.5,0.4c0,0,0,0,0,0v0.8c0,0.2,0.2,0.4,0.4,0.4h0h0.1H108z"/>
		<path class="st1" d="M115,132.1h-9.3v-1.9c0-1.4,1.1-2.5,2.5-2.5h0.9v-1.2h0.3v1.5h-1.2c-1.2,0-2.2,1-2.2,2.2l0,0v1.6h8.7v-1.6
			c0-1.2-1-2.2-2.2-2.2h-1.2v-1.5h0.3v1.2h0.9c1.4,0,2.5,1.1,2.5,2.5V132.1z"/>
		<path class="st1" d="M108.2,122.7h-0.2v-0.3c1.3,0.1,2.5-0.5,3.2-1.6l0.2-0.3l0.1,0.3c0,0,0.5,1.4,1.4,1.5v0.3
			c-0.8-0.1-1.3-1-1.5-1.4C110.5,122.2,109.4,122.7,108.2,122.7z"/>
		<rect x="109.6" y="125.1" class="st1" width="1.3" height="0.3"/>
		<rect x="110" y="125.5" class="st1" width="0.5" height="0.3"/>
	</g>
</g>
</svg>
