<?xml version="1.0" encoding="utf-8"?>
<!-- Generator: Adobe Illustrator 21.1.0, SVG Export Plug-In . SVG Version: 6.00 Build 0)  -->
<svg version="1.1" id="Layer_1" xmlns="http://www.w3.org/2000/svg" xmlns:xlink="http://www.w3.org/1999/xlink" x="0px" y="0px"
	 viewBox="0 0 480 480" style="enable-background:new 0 0 480 480;" xml:space="preserve">
<style type="text/css">
	.st0{fill:#256278;}
	.st1{fill:#47BA99;}
</style>
<path class="st0" d="M448,64v16c8.8,0,16,7.2,16,16v240h-16v16h16v16c0,8.8-7.2,16-16,16v16c17.7,0,32-14.3,32-32V96
	C480,78.3,465.7,64,448,64z"/>
<path class="st0" d="M32,400h157.2L170,464h-18v16h176v-16H186.8l19.2-64h10v-16H32c-8.8,0-16-7.2-16-16v-16h256v-16H16V96
	c0-8.8,7.2-16,16-16V64C14.3,64,0,78.3,0,96v272C0,385.7,14.3,400,32,400z"/>
<path class="st0" d="M64,32c0-8.8,7.2-16,16-16h320c8.8,0,16,7.2,16,16v288h16V32c0-17.7-14.3-32-32-32H80C62.3,0,48,14.3,48,32v288
	h16V32z"/>
<path class="st0" d="M80,32h16v16H80V32z"/>
<path class="st0" d="M112,32h16v16h-16V32z"/>
<path class="st0" d="M144,32h16v16h-16V32z"/>
<path class="st1" d="M144,304h128v-16H144c-13.3,0-24-10.7-24-24s10.7-24,24-24h192c9.7,0,18.5,5.8,22.2,14.8s1.7,19.3-5.2,26.2
	c-1.5,1.5-3.2,2.8-5,3.8l8,13.9c3-1.8,5.8-3.9,8.3-6.4c11.4-11.4,14.8-28.6,8.6-43.6c-6.2-14.9-20.8-24.7-36.9-24.7H144
	c-22.1,0-40,17.9-40,40S121.9,304,144,304z"/>
<path class="st0" d="M136,256h135v16H136V256z"/>
<path class="st1" d="M190,187.7c0.6,0.6,1.2,1,1.8,1.6c1,0.9,2,1.8,3,2.7c0.9,0.7,1.7,1.3,2.6,2c0.9,0.6,1.9,1.4,2.9,2.1
	s2.1,1.3,3.2,2c0.9,0.5,1.8,1.1,2.7,1.6c1.2,0.6,2.5,1.2,3.7,1.8c0.8,0.4,1.7,0.8,2.5,1.2c1.3,0.5,2.7,1,4,1.5
	c0.8,0.3,1.7,0.6,2.5,0.9c1.4,0.4,2.8,0.8,4.2,1.1c0.9,0.2,1.7,0.5,2.6,0.6c1.5,0.3,3.1,0.5,4.7,0.7c0.8,0.1,1.5,0.3,2.3,0.3
	c2.4,0.2,4.8,0.4,7.2,0.4s4.8-0.1,7.2-0.4c0.8-0.1,1.6-0.2,2.3-0.3c1.6-0.2,3.1-0.4,4.7-0.7c0.9-0.2,1.7-0.4,2.6-0.6
	c1.4-0.3,2.8-0.7,4.2-1.1c0.9-0.3,1.7-0.6,2.5-0.9c1.4-0.5,2.7-0.9,4-1.5c0.9-0.4,1.7-0.8,2.5-1.2c1.2-0.6,2.5-1.1,3.7-1.8
	c0.9-0.5,1.8-1.1,2.7-1.6c1.1-0.6,2.2-1.3,3.2-2s1.9-1.4,2.9-2.1c1-0.7,1.8-1.3,2.6-2c1.1-0.8,2-1.8,3-2.7c0.6-0.5,1.2-1,1.8-1.6
	c0.1-0.1,0.1-0.1,0.1-0.2c21-20.4,27.6-51.6,16.6-78.7S269.3,63.9,240,63.9s-55.7,17.8-66.7,44.9c-11,27.2-4.5,58.3,16.6,78.7
	C189.9,187.6,189.9,187.7,190,187.7z M224,128c0-8.8,7.2-16,16-16s16,7.2,16,16s-7.2,16-16,16S224,136.8,224,128z M240,160
	c14.3,0,27.5,7.6,34.6,20l-0.5,0.3c-2.3,1.8-4.7,3.4-7.2,4.8l-0.1,0.1c-2.4,1.3-5,2.4-7.6,3.4c-0.5,0.2-0.9,0.4-1.4,0.5
	c-2.5,0.9-5.1,1.5-7.8,2c-0.5,0.1-1,0.2-1.6,0.2c-5.6,0.9-11.3,0.9-16.9,0c-0.5-0.1-1-0.1-1.6-0.2c-2.6-0.5-5.2-1.1-7.8-2
	c-0.5-0.2-0.9-0.3-1.4-0.5c-2.6-0.9-5.2-2.1-7.6-3.4l-0.1-0.1c-2.5-1.4-4.9-3-7.2-4.8l-0.5-0.3C212.4,167.5,225.7,159.9,240,160z
	 M240,80c20.9,0,40,11.6,49.7,30.1c9.6,18.5,8.2,40.9-3.9,58c-5.6-8.1-13.2-14.6-22.1-18.8c11.6-12.8,10.9-32.5-1.5-44.5
	c-12.4-12-32.1-12-44.5,0c-12.4,12-13.1,31.7-1.5,44.5c-8.9,4.2-16.5,10.7-22.1,18.8c-12-17.1-13.5-39.4-3.9-58
	C200,91.6,219.1,80,240,80z"/>
<path class="st1" d="M245.5,372.3l-1.3,0.6c-6.9,3.5-11.6,10.3-12.2,18.1c-0.6,7.7,2.9,15.2,9.2,19.7l50.1,35.8c1.4,1,3,1.5,4.6,1.5
	h128c4.4,0,8-3.6,8-8v-87.1c0.2-11.9-8.3-22.3-20-24.5c-7-1.2-14.1,0.8-19.5,5.4l-0.5,0.4c-9.1-8.2-22.9-8.2-32,0
	c-6.6-5.7-15.7-7.5-24-4.8V280c0.2-11.9-8.3-22.3-20-24.5c-7-1.2-14.1,0.8-19.5,5.3c-5.4,4.6-8.5,11.3-8.5,18.3v106.7l-21.2-12.7
	C260.3,369.2,252.3,368.9,245.5,372.3z M291.9,406.9c2.5,1.5,5.5,1.5,8,0.1s4.1-4.1,4.1-6.9V279.1c0-2.4,1-4.6,2.9-6.1
	c1.8-1.5,4.2-2.2,6.5-1.7c4,1,6.8,4.6,6.6,8.7v72c0,4.4,3.6,8,8,8s8-3.6,8-8s3.6-8,8-8s8,3.6,8,8s3.6,8,8,8s8-3.6,8-8s3.6-8,8-8
	s8,3.6,8,8s3.6,8,8,8s8-3.6,8-8c0-2.3,1-4.6,2.8-6.1c1.8-1.5,4.2-2.2,6.6-1.8c4,1,6.8,4.6,6.6,8.7V432H298.6l-48-34.3
	c-1.6-1.2-2.6-3-2.6-5c0-2.3,1.3-4.4,3.4-5.5l1.3-0.6c1.9-0.9,4.1-0.9,5.9,0.2L291.9,406.9z"/>
</svg>
