<?xml version="1.0" encoding="utf-8"?>
<!-- Generator: Adobe Illustrator 21.1.0, SVG Export Plug-In . SVG Version: 6.00 Build 0)  -->
<svg version="1.1" id="Layer_1" xmlns="http://www.w3.org/2000/svg" xmlns:xlink="http://www.w3.org/1999/xlink" x="0px" y="0px"
	 viewBox="0 0 337.3 334" style="enable-background:new 0 0 337.3 334;" xml:space="preserve">
<style type="text/css">
	.st0{fill:#F8F8F8;}
</style>
<g>
	<path class="st0" d="M173,178c22.6,2.6,76.6-6.9,95.7-9.9c128.3-20.3,15.3,99.3,31.7,81.8c-33.4,35.4-130,112.3-233.9,33.8
		c-48.2-39.6-65.5-91-61.7-144.6c3.2-45.8,27.3-48.9,42.3-40.5C68,110.3,107.6,170.2,173,178z"/>
	<path class="st0" d="M111.8,27.2c13.1,5.6,19,20.8,13.4,33.8c-5.6,13.1-20.8,19.2-33.9,13.5c-13.1-5.6-19-20.8-13.4-33.8
		C83.6,27.6,98.8,21.5,111.8,27.2z"/>
	<path class="st0" d="M276.3,71.6c13.1,5.6,19.1,20.8,13.5,33.9c-5.7,13-20.8,19-33.9,13.4S236.8,98.1,242.4,85
		C248,71.9,263.2,66,276.3,71.6z"/>
</g>
</svg>
