<?xml version="1.0" encoding="utf-8"?>
<!-- Generator: Adobe Illustrator 21.1.0, SVG Export Plug-In . SVG Version: 6.00 Build 0)  -->
<svg version="1.1" id="Layer_1" xmlns="http://www.w3.org/2000/svg" xmlns:xlink="http://www.w3.org/1999/xlink" x="0px" y="0px"
	 viewBox="0 0 337.3 334" style="enable-background:new 0 0 337.3 334;" xml:space="preserve">
<style type="text/css">
	.st0{fill-rule:evenodd;clip-rule:evenodd;fill:#F8F8F8;}
</style>
<g>
	<path class="st0" d="M187.3,163.2c15.2-18.9,37.4-73,45.6-91.9c54.8-127.2,98.2,42.8,91.8,18c12.9,50.3,27.1,181.1-102.8,230
		c-63.1,20.9-119.3,7.2-165.4-26.8c-39.4-29-28.5-52.5-12.4-61.2C66.5,219.3,143,217.7,187.3,163.2z"/>
	<path class="st0" d="M16.5,132.5c12.5-8.6,29.6-5.3,38.1,7.2c8.6,12.5,5.4,29.7-7.1,38.2c-12.5,8.6-29.6,5.3-38.1-7.2
		C0.8,158.1,4,141,16.5,132.5z"/>
	<path class="st0" d="M150.2,9.5c12.5-8.6,29.6-5.4,38.2,7.1c8.5,12.5,5.3,29.6-7.2,38.2c-12.5,8.6-29.6,5.4-38.2-7.1
		C134.4,35.2,137.7,18.1,150.2,9.5z"/>
</g>
</svg>
