<?xml version="1.0" encoding="utf-8"?>
<!-- Generator: Adobe Illustrator 21.1.0, SVG Export Plug-In . SVG Version: 6.00 Build 0)  -->
<svg version="1.1" id="Layer_1" xmlns="http://www.w3.org/2000/svg" xmlns:xlink="http://www.w3.org/1999/xlink" x="0px" y="0px"
	 viewBox="0 0 337.3 334" style="enable-background:new 0 0 337.3 334;" xml:space="preserve">
<style type="text/css">
	.st0{fill:#47B89A;}
</style>
<g>
	<path class="st0" d="M178.1,178.9c22.5,0.7,74.9-13.2,93.4-17.7c124.7-30.6,23.3,96.5,38,77.9c-30,37.7-118.7,121.3-227.5,52.6
		c-50.7-35-72-84.1-72.7-137.2c-0.6-45.3,22.9-50.4,38.3-43.4C69.1,121,113.1,176.6,178.1,178.9z"/>
	<path class="st0" d="M105.3,35.5c13.3,4.4,20.5,18.9,16,32.2c-4.4,13.3-18.9,20.6-32.2,16.1c-13.3-4.4-20.5-18.9-16-32.2
		C77.6,38.2,92,31,105.3,35.5z"/>
	<path class="st0" d="M271,65.5c13.3,4.4,20.5,18.9,16.1,32.2c-4.5,13.3-18.9,20.5-32.3,16c-13.3-4.4-20.5-18.9-16.1-32.2
		S257.6,61.1,271,65.5z"/>
</g>
</svg>
