<?xml version="1.0" encoding="utf-8"?>
<!-- Generator: Adobe Illustrator 21.1.0, SVG Export Plug-In . SVG Version: 6.00 Build 0)  -->
<svg version="1.1" id="Layer_1" xmlns="http://www.w3.org/2000/svg" xmlns:xlink="http://www.w3.org/1999/xlink" x="0px" y="0px"
	 viewBox="0 0 504 488.4" style="enable-background:new 0 0 504 488.4;" xml:space="preserve">
<style type="text/css">
	.st0{fill:#286983;}
</style>
<path class="st0" d="M40.3,172.3C11,182.2,0.2,220.1,9.5,247.9c8.8,26.1,37,47.7,63.3,41.8c31.4-7.1,48.6-50.9,34.9-82.5
	C97.3,182.9,67.6,163.3,40.3,172.3"/>
<path class="st0" d="M309.4,12.5c-29.3,9.8-40.2,47.8-30.8,75.5c8.8,26.1,37,47.7,63.3,41.8c31.4-7.1,48.6-50.9,34.9-82.5
	C366.3,23.1,336.6,3.5,309.4,12.5"/>
<path class="st0" d="M298.1,281.4c26.2-20.2,73-81.1,89.8-102.3c62.4-78.7,88.7-47,99.8-9.8c8.6,29,6.8,79.1,2.9,99.5
	c-13.6,71-58.8,170.8-199.5,204.5c-89.3,18.1-162.2-3.5-216.5-52.1c-46.9-41.9-22.7-69.9,3.4-78.4
	C114.4,331,220.4,340.7,298.1,281.4z"/>
</svg>
