<?xml version="1.0" encoding="utf-8"?>
<!-- Generator: Adobe Illustrator 21.1.0, SVG Export Plug-In . SVG Version: 6.00 Build 0)  -->
<svg version="1.1" id="Capa_1" xmlns="http://www.w3.org/2000/svg" xmlns:xlink="http://www.w3.org/1999/xlink" x="0px" y="0px"
	 viewBox="0 0 512 512" style="enable-background:new 0 0 512 512;" xml:space="preserve">
<style type="text/css">
	.st0{fill:#46BA98;}
</style>
<g>
	<g>
		<path class="st0" d="M95.1,357.2c-1.7-1.7-3.9-2.6-6.3-2.6s-4.6,1-6.3,2.6c-1.7,1.7-2.6,3.9-2.6,6.3c0,2.4,1,4.6,2.6,6.3
			c1.7,1.7,3.9,2.6,6.3,2.6c2.4,0,4.6-1,6.3-2.6c1.7-1.7,2.6-3.9,2.6-6.3C97.7,361.1,96.7,358.8,95.1,357.2z"/>
	</g>
</g>
<g>
	<g>
		<path class="st0" d="M450.2,102.6L450.2,102.6l-59-39.8c-11.3-7.6-24.8-10.4-37.7-8.6c0.6-2.7,0.9-5.7,0.9-8.6
			c0-11.1-4.3-21.6-12.2-29.4l-4-4C330.3,4.3,319.9,0,308.8,0c-11.1,0-21.6,4.3-29.4,12.2c-7.9,7.9-12.2,18.3-12.2,29.4
			s4.3,21.6,12.2,29.4l4,4c5,5,11.1,8.6,17.7,10.5l-59.5,44.8c-3.8,2.8-6.5,6.6-8.1,10.7c-4.2-0.9-8.8-0.6-13.2,0.9l-57.6,20.7
			c2.1-5,3.3-10.4,3.3-16.2v-5.7c0-23-18.7-41.6-41.6-41.6s-41.6,18.7-41.6,41.6v5.7c0,16,9,29.9,22.3,36.9
			c-14.9,6.3-24.8,21-24.8,37.4v105.5c0,4.9,4,8.8,8.8,8.8c4.9,0,8.8-4,8.8-8.8v-16.2h34.8c1.9,0,3.5-0.5,5-1.5l40-27.1
			c3.9-2.7,8.5-4.1,13.3-4.1c13,0,23.6,10.6,23.6,23.6v54.8l-24.8,9.9v-44.3c0-3.2-1.7-6.1-4.5-7.7c-2.7-1.6-6.2-1.5-8.9,0.1
			l-44.8,26.8c-5.6,3.4-9,9.5-9,15.9v78.5H97.7v-37.1c0-4.9-4-8.8-8.8-8.8c-4.9,0-8.8,4-8.8,8.8v46c0,4.9,4,8.8,8.8,8.8h42.4
			c4.9,0,8.8-4,8.8-8.8v-87.4c0-0.3,0.2-0.6,0.4-0.7L172,337v106.9c0,4.9,4,8.8,8.8,8.8h295.3c4.9,0,8.8-4,8.8-8.8v-277
			C485,140.9,472,116.8,450.2,102.6z M295.9,62.6l-4-4c-4.5-4.5-7-10.5-7-17c0-6.4,2.5-12.4,7-17c4.5-4.5,10.5-7,17-7
			c6.5,0,12.4,2.5,17,7l4,4c9.4,9.4,9.4,24.6,0,33.9C320.4,71.9,305.2,71.9,295.9,62.6z M252.2,144.6l87.7-66.1
			c12.1-9.2,28.8-9.6,41.4-1.1l49,33.1L387,145.4l-34-22.9c-2.5-1.7-5.6-1.9-8.3-0.9L259,156.7c-3.2,1.3-6.9,0.1-8.7-2.9l0,0
			C248.5,150.7,249.3,146.7,252.2,144.6z M100.3,146.5v-5.7c0-13.2,10.8-24,24-24s24,10.8,24,24v5.7c0,13.2-10.8,24-24,24
			S100.3,159.7,100.3,146.5z M150.7,231.9v46.2l-20.9,14.1H97.7v-23.9v-47.7c0-9.7,6.1-18.4,15.3-21.7l113.2-40.4
			c3.2-1.1,6.7,0.2,8.4,3c1.9,3.2,1,7.3-2,9.4l-77.9,53.6C152.2,226.4,150.7,229,150.7,231.9z M190.8,259.7c-8,0-15.7,2.3-22.4,6.5
			v-29.6l74.1-50.9c4.2-2.9,7.3-6.9,9-11.4c1.7,0.4,3.3,0.5,5,0.5c3.1,0,6.3-0.6,9.3-1.9l81.4-33.3l35.1,23.7
			c7.8,6,12.5,15.5,12.5,25.3v69.6h-17.4c-1.9,0-3.9,0.6-5.4,1.9L284.2,328l-52.1,20.8V301C232.1,278.2,213.5,259.7,190.8,259.7z
			 M467.3,435.1H189.7v-50.3L291.8,344c0.8-0.3,1.5-0.7,2.1-1.2l86.5-66.9h86.9V435.1z M467.3,258.2h-17.7v-69.8
			c0-4.9-4-8.8-8.8-8.8c-4.9,0-8.8,4-8.8,8.8v69.8h-19.5v-69.5c0-11.7-4.2-23-11.6-31.8l44.7-35.9c13.8,11.1,21.8,27.9,21.8,45.9
			L467.3,258.2L467.3,258.2z"/>
	</g>
</g>
<g>
	<g>
		<path class="st0" d="M433.7,311.5h-20.6c-4.9,0-8.8,4-8.8,8.8c0,4.9,4,8.8,8.8,8.8h11.8v34.2c0,4.9,4,8.8,8.8,8.8s8.8-4,8.8-8.8
			v-43.1C442.6,315.5,438.6,311.5,433.7,311.5z"/>
	</g>
</g>
<g>
	<g>
		<path class="st0" d="M440,391.7c-1.7-1.7-3.9-2.6-6.3-2.6s-4.6,1-6.3,2.6c-1.7,1.7-2.6,3.9-2.6,6.3s1,4.6,2.6,6.3
			c1.6,1.7,3.9,2.6,6.3,2.6s4.6-1,6.3-2.6c1.7-1.7,2.6-3.9,2.6-6.3S441.6,393.3,440,391.7z"/>
	</g>
</g>
</svg>
