<?xml version="1.0" encoding="utf-8"?>
<!-- Generator: Adobe Illustrator 21.1.0, SVG Export Plug-In . SVG Version: 6.00 Build 0)  -->
<svg version="1.1" id="Layer_1" xmlns="http://www.w3.org/2000/svg" xmlns:xlink="http://www.w3.org/1999/xlink" x="0px" y="0px"
	 viewBox="0 0 921 512" style="enable-background:new 0 0 921 512;" xml:space="preserve">
<style type="text/css">
	.st0{fill:#46BA98;}
	.st1{fill:#216176;}
	.st2{fill:#216176;stroke:#FFFFFF;stroke-width:2;stroke-linecap:round;stroke-miterlimit:10;}
</style>
<g>
	<rect x="97.1" y="251" class="st0" width="139.6" height="12.2"/>
	<rect x="139.6" y="226.8" class="st1" width="115.3" height="12.2"/>
	<path class="st0" d="M121.4,195.6v6.9h12.2v-6.9c9.1-2.8,14.1-12.5,11.4-21.6c-1.4-4.5-4.6-8.2-8.8-10.4l-11.8-5.9
		c-2.5-1.3-3.6-4.4-2.3-6.9c0.9-1.7,2.7-2.9,4.6-2.9h1.8c2.9,0,5.1,2.3,5.2,5.2v0.9h12.2v-0.9c0-7.6-5-14.1-12.2-16.4v-6.9h-12.2
		v6.9c-9.1,2.8-14.1,12.5-11.4,21.6c1.4,4.5,4.6,8.2,8.8,10.4l11.8,5.9c2.5,1.3,3.6,4.4,2.3,6.9c-0.9,1.7-2.7,2.9-4.6,2.9h-1.8
		c-2.9,0-5.1-2.3-5.2-5.2v-0.9h-12.2v0.9C109.2,186.7,114.2,193.4,121.4,195.6z"/>
	<rect x="242.7" y="129.7" class="st1" width="12.2" height="12.2"/>
	<rect x="176" y="190.4" class="st1" width="78.9" height="12.2"/>
	<rect x="176" y="166.1" class="st1" width="78.9" height="12.2"/>
	<rect x="218.5" y="129.7" class="st1" width="12.2" height="12.2"/>
	<rect x="115.3" y="226.8" class="st1" width="12.2" height="12.2"/>
	<path class="st2" d="M358,160h-30.4v-48.5c0-13.4-10.9-24.2-24.2-24.2H85c-13.4,0-24.2,10.9-24.2,24.2v169.9H6c-3.3,0-6,2.7-6,6
		v131.2c0,3.3,2.7,6,6,6h224.5c3.3,0,6-2.7,6-6V409l12.2-12.2l13.9,13.9c2.3,2.3,6.2,2.3,8.6,0l18.2-18.2c1.2-1.2,1.8-2.7,1.8-4.3
		v-34h48.6c13.4,0,24.2-10.9,24.2-24.2V166.1C364.1,162.7,361.4,160,358,160z M224.5,293.6v18.2H12.2v-18.2H224.5z M12.2,323.9
		h212.4v18.2H12.2V323.9z M12.2,412.6v-58.4h212.4v58.4H12.2z M279.1,385.9L266.9,398L253,384.1c-2.3-2.3-6.2-2.3-8.6,0l-7.8,7.8
		V287.4c0-3.3-2.7-6-6-6H72.8V111.5c0-6.7,5.4-12.2,12.2-12.2h197.5c-2.2,3.7-3.3,7.8-3.3,12.2L279.1,385.9L279.1,385.9z
		 M291.3,111.5c0-6.7,5.4-12.2,12.2-12.2c6.7,0,12.2,5.4,12.2,12.2V330c0,4.2,1.2,8.5,3.3,12.2h-27.7V111.5z M351.9,330
		c0,6.7-5.4,12.2-12.2,12.2c-6.7,0-12.2-5.4-12.2-12.2V172.2h24.2L351.9,330L351.9,330z"/>
	<rect x="145.6" y="372.4" class="st0" width="12.2" height="12.2"/>
	<rect x="169.9" y="372.4" class="st0" width="12.2" height="12.2"/>
	<rect x="194.2" y="372.4" class="st0" width="12.2" height="12.2"/>
</g>
</svg>
