<?xml version="1.0" encoding="utf-8"?>
<!-- Generator: Adobe Illustrator 21.1.0, SVG Export Plug-In . SVG Version: 6.00 Build 0)  -->
<svg version="1.1" id="Layer_1" xmlns="http://www.w3.org/2000/svg" xmlns:xlink="http://www.w3.org/1999/xlink" x="0px" y="0px"
	 viewBox="0 0 921 512" style="enable-background:new 0 0 921 512;" xml:space="preserve">
<style type="text/css">
	.st0{fill:#216176;}
	.st1{fill:#46BA98;}
</style>
<g>
	<path class="st0" d="M341.5,89H39c-13,0-23.4,10.3-23.4,22.9v287.7c0,12.6,10.4,23.5,23.4,23.5h302.5c12.6,0,23.4-10.4,23.4-23.4
		V111.9C364.4,99.3,354,89,341.5,89z M353.5,399.6c0,6.5-5.4,12.6-12.6,12.6H39c-6.5,0-12.6-5.4-12.6-12.6V111.9
		c0-6.5,5.4-12.6,12.6-12.6h302.5c6.5,0,12.6,5.4,12.6,12.6v287.7H353.5z"/>
	<path class="st0" d="M331.1,162.5H48.8c-3.3,0-5.4,2.2-5.4,5.4v221.8c0,3.3,2.2,5.4,5.4,5.4h282.9c3.3,0,5.4-2.2,5.4-5.4V168
		C336.6,164.7,334.4,162.5,331.1,162.5z M325.7,384.4H54.2V173.5h271.9v210.9H325.7z"/>
	<path class="st1" d="M62.5,146.2c10.4,0,19.1-8.7,19.1-19.1S72.9,108,62.5,108s-19.1,8.7-19.1,19.1S51.6,146.2,62.5,146.2z
		 M62.5,118.9c4.3,0,8.2,3.9,8.2,8.2s-3.9,8.2-8.2,8.2s-8.2-3.9-8.2-8.2C54.2,122.8,57.5,118.9,62.5,118.9z"/>
	<path class="st1" d="M122.9,146.2c10.4,0,19.1-8.7,19.1-19.1s-8.7-19.1-19.1-19.1s-19.1,8.7-19.1,19.1S112.6,146.2,122.9,146.2z
		 M122.9,118.9c4.3,0,8.2,3.9,8.2,8.2s-3.9,8.2-8.2,8.2s-8.2-3.9-8.2-8.2C114.7,122.8,118.6,118.9,122.9,118.9z"/>
	<path class="st1" d="M183.4,146.2c10.4,0,19.1-8.7,19.1-19.1s-8.7-19.1-19.1-19.1s-19.1,8.7-19.1,19.1S173.1,146.2,183.4,146.2z
		 M183.4,118.9c4.3,0,8.2,3.9,8.2,8.2s-3.9,8.2-8.2,8.2s-8.2-3.9-8.2-8.2S179.1,118.9,183.4,118.9z"/>
	<path class="st1" d="M72.8,220.8h115.6c3.3,0,5.4-2.2,5.4-5.4s-2.2-5.4-5.4-5.4H72.8c-3.3,0-5.4,2.2-5.4,5.4S69.6,220.8,72.8,220.8
		z"/>
	<path class="st0" d="M72.8,263.3h110.6c3.3,0,5.4-2.2,5.4-5.4c0-3.3-2.2-5.4-5.4-5.4H72.8c-3.3,0-5.4,2.2-5.4,5.4
		C67.4,261.1,69.6,263.3,72.8,263.3z"/>
	<path class="st1" d="M72.8,306.4h74.1c3.3,0,5.4-2.2,5.4-5.4c0-3.2-2.2-5.4-5.4-5.4H72.8c-3.3,0-5.4,2.2-5.4,5.4
		C67.4,304.2,69.6,306.4,72.8,306.4z"/>
	<path class="st0" d="M72.8,349.5H137c3.3,0,5.4-2.2,5.4-5.4c0-3.2-2.2-5.4-5.4-5.4H72.8c-3.3,0-5.4,2.2-5.4,5.4
		S69.6,349.5,72.8,349.5z"/>
	<path class="st1" d="M297.3,350.6H233c-3.3,0-5.4,2.2-5.4,5.4c0,3.3,2.2,5.4,5.4,5.4h64.3c3.3,0,5.4-2.2,5.4-5.4
		C302.8,352.8,300.1,350.6,297.3,350.6z"/>
</g>
<g>
	<g>
		<path class="st0" d="M280.5,234.8c-0.5-0.3-11.2-7.3-28.8-3.8c-1.5,0.3-2.5,1.6-2.5,3v3.3c0,1.7,1.4,3.1,3.1,3.1
			c1.7,0,3.1-1.4,3.1-3.1v-0.6c6.7-0.9,11.9-0.2,15.2,0.7c4.1,1.1,6.3,2.5,6.4,2.6c0.6,0.4,1.1,0.5,1.7,0.5c1,0,2-0.5,2.6-1.4
			C282.3,237.7,281.9,235.7,280.5,234.8z"/>
	</g>
</g>
<g>
	<g>
		<path class="st0" d="M299.9,288.4l-15.8-5.9c-1.4-0.5-2.3-1.8-2.3-3.3v-7.9c0.6-0.6,1.3-1.1,1.9-1.7c5.1-5,8-11.7,8-18.9v-5.9
			l0.8-1.7c1.6-3.2,2.5-6.7,2.5-10.3v-18.5c0-1.7-1.4-3.1-3.1-3.1h-34.5c-11.9,0-21.6,9.6-21.6,21.7c0,3.6,0.8,7.1,2.5,10.3l0.8,1.7
			v5c0,8.5,3.9,16.3,9.9,21.3v8.3c0,1.5-0.9,2.8-2.3,3.3l-15.8,5.9c-5,1.9-8.4,6.8-8.4,12.2v23c0,1.7,1.4,3.1,3.1,3.1
			c1.7,0,3.1-1.4,3.1-3.1v-23c0-2.8,1.7-5.4,4.4-6.4l15.8-5.9c0.8-0.4,1.7-0.7,2.4-1.3l11,8.3v28.3c0,1.7,1.4,3.1,3.1,3.1
			s3.1-1.4,3.1-3.1v-28.3l11-8.3c0.7,0.6,1.5,0.9,2.4,1.3l15.8,5.9c2.7,1,4.4,3.6,4.4,6.4v23c0,1.7,1.4,3.1,3.1,3.1s3.1-1.4,3.1-3.1
			v-23C308.4,295.2,305,290.3,299.9,288.4z M265.5,289.9l-10.6-7.9c0.3-0.8,0.5-1.7,0.5-2.8v-4.4c2.9,1.3,6.1,2,9.4,2.1
			c0.3,0,0.6,0,0.8,0c3.6,0,7-0.7,10.1-2v4.2c0,0.9,0.1,1.8,0.5,2.8L265.5,289.9z M279.4,265.1c-3.9,3.8-9.2,5.9-14.6,5.7
			c-10.7-0.4-19.5-9.7-19.5-21v-5.7c0-0.5-0.1-0.9-0.4-1.4l-1.2-2.5c-1.2-2.3-1.7-5-1.7-7.5c0-8.4,6.9-15.4,15.4-15.4h31.4v15.4
			c0,2.6-0.6,5.1-1.7,7.5l-1.2,2.5c-0.2,0.5-0.4,0.9-0.4,1.4v6.6C285.6,256.1,283.4,261.2,279.4,265.1z"/>
	</g>
</g>
<g>
	<g>
		<path class="st0" d="M242.3,303.9c-1.7,0-3.1,1.4-3.1,3.1v16.6c0,1.7,1.4,3.1,3.1,3.1c1.7,0,3.1-1.4,3.1-3.1V307
			C245.4,305.3,243.9,303.9,242.3,303.9z"/>
	</g>
</g>
<g>
	<g>
		<path class="st0" d="M288.6,303.9c-1.7,0-3.1,1.4-3.1,3.1v16.6c0,1.7,1.4,3.1,3.1,3.1s3.1-1.4,3.1-3.1V307
			C291.7,305.3,290.4,303.9,288.6,303.9z"/>
	</g>
</g>
</svg>
